<svg width="24" height="24" viewBox="0 0 24 24" fill="none" xmlns="http://www.w3.org/2000/svg">
<mask id="mask0_273_28279" style="mask-type:alpha" maskUnits="userSpaceOnUse" x="0" y="0" width="24" height="24">
<rect x="0.74707" y="0.699707" width="24" height="24" fill="#D9D9D9"/>
</mask>
<g mask="url(#mask0_273_28279)">
<path d="M12.747 19.9688C12.3346 19.9688 11.9814 19.8219 11.6877 19.5282C11.3939 19.2344 11.2471 18.8813 11.2471 18.4688C11.2471 18.0563 11.3939 17.7032 11.6877 17.4095C11.9814 17.1157 12.3346 16.9688 12.747 16.9688C13.1595 16.9688 13.5126 17.1157 13.8064 17.4095C14.1001 17.7032 14.247 18.0563 14.247 18.4688C14.247 18.8813 14.1001 19.2344 13.8064 19.5282C13.5126 19.8219 13.1595 19.9688 12.747 19.9688ZM12.747 14.1996C12.3346 14.1996 11.9814 14.0527 11.6877 13.7589C11.3939 13.4652 11.2471 13.1121 11.2471 12.6996C11.2471 12.2871 11.3939 11.934 11.6877 11.6402C11.9814 11.3465 12.3346 11.1996 12.747 11.1996C13.1595 11.1996 13.5126 11.3465 13.8064 11.6402C14.1001 11.934 14.247 12.2871 14.247 12.6996C14.247 13.1121 14.1001 13.4652 13.8064 13.7589C13.5126 14.0527 13.1595 14.1996 12.747 14.1996ZM12.747 8.43035C12.3346 8.43035 11.9814 8.28347 11.6877 7.98972C11.3939 7.69599 11.2471 7.34287 11.2471 6.93037C11.2471 6.51789 11.3939 6.16477 11.6877 5.87102C11.9814 5.57729 12.3346 5.43042 12.747 5.43042C13.1595 5.43042 13.5126 5.57729 13.8064 5.87102C14.1001 6.16477 14.247 6.51789 14.247 6.93037C14.247 7.34287 14.1001 7.69599 13.8064 7.98972C13.5126 8.28347 13.1595 8.43035 12.747 8.43035Z" fill="#606060"/>
</g>
</svg>
