<svg width="33" height="33" viewBox="0 0 33 33" fill="none" xmlns="http://www.w3.org/2000/svg">
<mask id="mask0_895_3681" style="mask-type:alpha" maskUnits="userSpaceOnUse" x="0" y="0" width="33" height="33">
<rect x="0.789062" y="0.556641" width="32" height="32" fill="#D9D9D9"/>
</mask>
<g mask="url(#mask0_895_3681)">
<path d="M10.3276 23.4592L16.6866 26.7618C16.9601 26.8643 17.2165 26.8387 17.4558 26.6848C17.6951 26.531 17.8148 26.3088 17.8148 26.0182V9.62844C17.8148 9.45748 17.7678 9.30364 17.6737 9.16691C17.5797 9.03015 17.4558 8.92759 17.302 8.85921L9.81478 5.88997V23.4592H10.3276ZM9.83661 25.4565C9.43059 25.2959 9.10322 25.0355 8.85451 24.6752C8.6058 24.3149 8.48145 23.9096 8.48145 23.4592V5.94124C8.48145 5.5498 8.61435 5.22116 8.88015 4.95534C9.14597 4.68954 9.4746 4.55664 9.86605 4.55664L17.7737 7.64124C18.179 7.80226 18.5094 8.06617 18.7649 8.43297C19.0204 8.79975 19.1481 9.20678 19.1481 9.65407V26.0182C19.1481 26.7941 18.8319 27.394 18.1994 27.818C17.5669 28.2421 16.8976 28.3113 16.1915 28.0259L9.83661 25.4565ZM17.8148 24.5566V23.2233H22.943C23.1823 23.2233 23.3789 23.1464 23.5327 22.9925C23.6866 22.8387 23.7635 22.6421 23.7635 22.4028V6.71047C23.7635 6.47116 23.6866 6.27458 23.5327 6.12074C23.3789 5.9669 23.1823 5.88997 22.943 5.88997H9.86605V4.55664H22.9391C23.5383 4.55664 24.0477 4.76754 24.4674 5.18934C24.887 5.61112 25.0968 6.11816 25.0968 6.71047V22.4028C25.0968 22.9951 24.8859 23.5022 24.4641 23.9239C24.0424 24.3457 23.5353 24.5566 22.943 24.5566H17.8148Z" fill="#CBE6CC"/>
</g>
</svg>
