<svg width="33" height="33" viewBox="0 0 33 33" fill="none" xmlns="http://www.w3.org/2000/svg">
<mask id="mask0_428_399" style="mask-type:alpha" maskUnits="userSpaceOnUse" x="1" y="1" width="32" height="32">
<path d="M32.2954 1.03955H1.26514V32.0699H32.2954V1.03955Z" fill="#D9D9D9"/>
</mask>
<g mask="url(#mask0_428_399)">
<path d="M10.5148 23.2482L16.6811 26.4507C16.9463 26.5501 17.195 26.5253 17.427 26.3761C17.6591 26.2269 17.7751 26.0115 17.7751 25.7297V9.83657C17.7751 9.67079 17.7296 9.52161 17.6383 9.38902C17.5472 9.25641 17.427 9.15695 17.2779 9.09065L10.0175 6.21138V23.2482H10.5148ZM10.0387 25.185C9.64499 25.0293 9.32754 24.7767 9.08636 24.4274C8.84519 24.078 8.72461 23.685 8.72461 23.2482V6.2611C8.72461 5.88152 8.85348 5.56284 9.11123 5.30507C9.36899 5.04733 9.68766 4.91846 10.0673 4.91846L17.7353 7.90958C18.1283 8.06572 18.4487 8.32164 18.6964 8.67732C18.9442 9.03299 19.068 9.42768 19.068 9.86142V25.7297C19.068 26.4821 18.7614 27.0638 18.1481 27.4749C17.5347 27.8862 16.8857 27.9533 16.201 27.6765L10.0387 25.185ZM17.7751 24.3124V23.0195H22.7479C22.98 23.0195 23.1706 22.9449 23.3198 22.7957C23.469 22.6465 23.5436 22.4559 23.5436 22.2238V7.00702C23.5436 6.77496 23.469 6.58434 23.3198 6.43516C23.1706 6.28598 22.98 6.21138 22.7479 6.21138H10.0673V4.91846H22.7441C23.3252 4.91846 23.8192 5.12297 24.2261 5.53198C24.633 5.94098 24.8365 6.43266 24.8365 7.00702V22.2238C24.8365 22.7982 24.632 23.2899 24.2229 23.6988C23.814 24.1078 23.3223 24.3124 22.7479 24.3124H17.7751Z" fill="white"/>
</g>
</svg>
