<svg width="25" height="25" viewBox="0 0 25 25" fill="none" xmlns="http://www.w3.org/2000/svg">
<mask id="mask0_350_20980" style="mask-type:alpha" maskUnits="userSpaceOnUse" x="0" y="0" width="25" height="25">
<rect x="0.242188" y="0.960449" width="24" height="24" fill="#D9D9D9"/>
</mask>
<g mask="url(#mask0_350_20980)">
<path d="M12.2422 16.2103C12.7281 16.2103 13.1412 16.0402 13.4816 15.6998C13.8219 15.3594 13.9921 14.9463 13.9921 14.4604C13.9921 13.9745 13.8219 13.5613 13.4816 13.221C13.1412 12.8806 12.7281 12.7104 12.2422 12.7104C11.7563 12.7104 11.3431 12.8806 11.0028 13.221C10.6624 13.5613 10.4922 13.9745 10.4922 14.4604C10.4922 14.9463 10.6624 15.3594 11.0028 15.6998C11.3431 16.0402 11.7563 16.2103 12.2422 16.2103ZM4.54989 21.4603C4.04475 21.4603 3.61719 21.2853 3.26719 20.9353C2.91719 20.5853 2.74219 20.1578 2.74219 19.6526V9.2681C2.74219 8.76297 2.91719 8.3354 3.26719 7.9854C3.61719 7.6354 4.04475 7.4604 4.54989 7.4604H8.74219V5.76812C8.74219 5.26301 8.91719 4.83545 9.26719 4.48545C9.61719 4.13545 10.0448 3.96045 10.5499 3.96045H13.9344C14.4396 3.96045 14.8671 4.13545 15.2171 4.48545C15.5671 4.83545 15.7421 5.26301 15.7421 5.76812V7.4604H19.9344C20.4396 7.4604 20.8671 7.6354 21.2171 7.9854C21.5671 8.3354 21.7421 8.76297 21.7421 9.2681V19.6526C21.7421 20.1578 21.5671 20.5853 21.2171 20.9353C20.8671 21.2853 20.4396 21.4603 19.9344 21.4603H4.54989ZM4.54989 19.9604H19.9344C20.0114 19.9604 20.0819 19.9283 20.146 19.8642C20.2101 19.8001 20.2422 19.7296 20.2422 19.6526V9.2681C20.2422 9.19117 20.2101 9.12064 20.146 9.05652C20.0819 8.99242 20.0114 8.96037 19.9344 8.96037H4.54989C4.47295 8.96037 4.40243 8.99242 4.33831 9.05652C4.27421 9.12064 4.24216 9.19117 4.24216 9.2681V19.6526C4.24216 19.7296 4.27421 19.8001 4.33831 19.8642C4.40243 19.9283 4.47295 19.9604 4.54989 19.9604ZM10.2422 7.4604H14.2422V5.76812C14.2422 5.69119 14.2101 5.62068 14.146 5.55658C14.0819 5.49246 14.0114 5.4604 13.9344 5.4604H10.5499C10.473 5.4604 10.4024 5.49246 10.3383 5.55658C10.2742 5.62068 10.2422 5.69119 10.2422 5.76812V7.4604Z" fill="#4CA751"/>
</g>
</svg>
