<svg width="60" height="50" viewBox="0 0 60 50" fill="none" xmlns="http://www.w3.org/2000/svg">
<path d="M17.8678 43.5157C14.5533 43.3013 11.4039 42.2106 8.86933 40.3992C6.33478 38.5877 4.54468 36.1483 3.75464 33.429C2.96459 30.7098 3.215 27.8499 4.4701 25.2577C5.72521 22.6655 7.92083 20.4735 10.7435 18.9947C11.3441 15.0511 13.6306 11.4269 17.1751 8.80041C20.7196 6.17391 25.2792 4.7251 30.0006 4.7251C34.722 4.7251 39.2816 6.17391 42.8261 8.80041C46.3706 11.4269 48.6571 15.0511 49.2577 18.9947C52.0804 20.4735 54.276 22.6655 55.5311 25.2577C56.7862 27.8499 57.0366 30.7098 56.2466 33.429C55.4565 36.1483 53.6664 38.5877 51.1319 40.3992C48.5973 42.2106 45.4479 43.3013 42.1334 43.5157V43.5545H17.8678V43.5157ZM32.4272 27.2072H39.7068L30.0006 16.9901L20.2944 27.2072H27.574V35.3808H32.4272V27.2072Z" fill="#4CA751"/>
</svg>
