<svg width="25" height="25" viewBox="0 0 25 25" fill="none" xmlns="http://www.w3.org/2000/svg">
<mask id="mask0_339_19399" style="mask-type:alpha" maskUnits="userSpaceOnUse" x="0" y="0" width="25" height="25">
<rect x="0.199219" y="0.726562" width="24" height="24" fill="#D9D9D9"/>
</mask>
<g mask="url(#mask0_339_19399)">
<path d="M18.8984 20.4694C17.0626 20.4694 15.2184 20.0426 13.3658 19.189C11.5132 18.3354 9.81101 17.1313 8.25935 15.5765C6.70767 14.0217 5.50504 12.3195 4.65146 10.47C3.79788 8.6205 3.37109 6.77785 3.37109 4.94208C3.37109 4.64718 3.4685 4.40142 3.66332 4.20482C3.85814 4.00822 4.10166 3.90991 4.39389 3.90991H7.57088C7.81691 3.90991 8.03389 3.99015 8.22184 4.15063C8.40979 4.31112 8.52936 4.50937 8.58055 4.74539L9.13878 7.61143C9.1775 7.87744 9.16938 8.10598 9.11443 8.29704C9.05949 8.48811 8.96083 8.64858 8.81845 8.77846L6.56869 10.9683C6.93086 11.6314 7.34454 12.2586 7.80973 12.85C8.27492 13.4413 8.77851 14.0061 9.3205 14.5443C9.85501 15.0788 10.4232 15.5753 11.0252 16.0336C11.6271 16.4919 12.2771 16.9184 12.9752 17.313L15.1613 15.1082C15.3137 14.9496 15.4982 14.8385 15.7149 14.7748C15.9315 14.7111 16.1566 14.6955 16.3902 14.7279L19.0951 15.2787C19.3411 15.3436 19.5419 15.4691 19.6974 15.6552C19.8528 15.8413 19.9306 16.0523 19.9306 16.2884V19.4466C19.9306 19.7388 19.8323 19.9824 19.6357 20.1772C19.4391 20.372 19.1933 20.4694 18.8984 20.4694ZM5.87748 9.58586L7.61586 7.92241C7.64708 7.89742 7.66738 7.86308 7.67674 7.81937C7.68611 7.77565 7.68455 7.73507 7.67207 7.69761L7.2487 5.52089C7.23622 5.47093 7.21437 5.43347 7.18315 5.4085C7.15193 5.38352 7.11134 5.37102 7.06139 5.37102H4.97832C4.94086 5.37102 4.90964 5.38352 4.88466 5.4085C4.85967 5.43347 4.84718 5.46469 4.84718 5.50216C4.89714 6.16779 5.0061 6.84403 5.17406 7.5309C5.34204 8.21776 5.57651 8.90275 5.87748 9.58586ZM14.352 18.0042C14.9977 18.3052 15.6711 18.5353 16.3723 18.6945C17.0736 18.8537 17.7289 18.9483 18.3383 18.9783C18.3758 18.9783 18.407 18.9658 18.432 18.9409C18.457 18.9159 18.4695 18.8846 18.4695 18.8472V16.7979C18.4695 16.7479 18.457 16.7073 18.432 16.6761C18.407 16.6448 18.3696 16.623 18.3196 16.6105L16.274 16.1947C16.2366 16.1822 16.2038 16.1806 16.1757 16.19C16.1476 16.1993 16.1179 16.2196 16.0867 16.2509L14.352 18.0042Z" fill="#4CA751"/>
</g>
</svg>
