<svg width="32" height="32" viewBox="0 0 32 32" fill="none" xmlns="http://www.w3.org/2000/svg">
<mask id="mask0_428_395" style="mask-type:alpha" maskUnits="userSpaceOnUse" x="0" y="0" width="32" height="32">
<rect width="32" height="32" fill="#D9D9D9"/>
</mask>
<g mask="url(#mask0_428_395)">
<path d="M6.15383 28C5.54017 28 5.02778 27.7944 4.61667 27.3833C4.20556 26.9722 4 26.4598 4 25.8462V12.8205C4 12.2068 4.20556 11.6944 4.61667 11.2833C5.02778 10.8722 5.54017 10.6667 6.15383 10.6667H13.3333V5.33333C13.3333 4.95898 13.462 4.64317 13.7192 4.3859C13.9765 4.12863 14.2923 4 14.6667 4H17.3333C17.7077 4 18.0235 4.12863 18.2808 4.3859C18.538 4.64317 18.6667 4.95898 18.6667 5.33333V10.6667H25.8462C26.4598 10.6667 26.9722 10.8722 27.3833 11.2833C27.7944 11.6944 28 12.2068 28 12.8205V25.8462C28 26.4598 27.7944 26.9722 27.3833 27.3833C26.9722 27.7944 26.4598 28 25.8462 28H6.15383ZM6.15383 26.6667H25.8462C26.0855 26.6667 26.2821 26.5897 26.4359 26.4359C26.5897 26.2821 26.6667 26.0855 26.6667 25.8462V12.8205C26.6667 12.5812 26.5897 12.3846 26.4359 12.2308C26.2821 12.0769 26.0855 12 25.8462 12H18.6667V13.0256C18.6667 13.3829 18.5338 13.6944 18.268 13.9603C18.0021 14.2261 17.6906 14.359 17.3333 14.359H14.6667C14.3094 14.359 13.9979 14.2261 13.732 13.9603C13.4662 13.6944 13.3333 13.3829 13.3333 13.0256V12H6.15383C5.91452 12 5.71794 12.0769 5.5641 12.2308C5.41026 12.3846 5.33333 12.5812 5.33333 12.8205V25.8462C5.33333 26.0855 5.41026 26.2821 5.5641 26.4359C5.71794 26.5897 5.91452 26.6667 6.15383 26.6667ZM8.41027 23.2308H15.5897V23.041C15.5897 22.7316 15.5055 22.45 15.3372 22.1962C15.1688 21.9423 14.9385 21.7436 14.6462 21.6C14.2188 21.4171 13.7859 21.2799 13.3474 21.1885C12.909 21.097 12.4598 21.0513 12 21.0513C11.5402 21.0513 11.091 21.097 10.6526 21.1885C10.2141 21.2799 9.78119 21.4171 9.35383 21.6C9.06152 21.7436 8.83119 21.9423 8.66283 22.1962C8.49446 22.45 8.41027 22.7316 8.41027 23.041V23.2308ZM18.6667 21.1795H24V20H18.6667V21.1795ZM12 20C12.4359 20 12.8098 19.844 13.1218 19.5321C13.4338 19.2201 13.5897 18.8462 13.5897 18.4103C13.5897 17.9744 13.4338 17.6004 13.1218 17.2885C12.8098 16.9765 12.4359 16.8205 12 16.8205C11.5641 16.8205 11.1902 16.9765 10.8782 17.2885C10.5662 17.6004 10.4103 17.9744 10.4103 18.4103C10.4103 18.8462 10.5662 19.2201 10.8782 19.5321C11.1902 19.844 11.5641 20 12 20ZM18.6667 18H24V16.8205H18.6667V18ZM14.6667 13.0256H17.3333V5.33333H14.6667V13.0256Z" fill="#CBE6CC"/>
</g>
</svg>
