<svg width="24" height="24" viewBox="0 0 24 24" fill="none" xmlns="http://www.w3.org/2000/svg">
<mask id="mask0_250_24477" style="mask-type:alpha" maskUnits="userSpaceOnUse" x="0" y="0" width="24" height="24">
<rect width="24" height="24" fill="#D9D9D9"/>
</mask>
<g mask="url(#mask0_250_24477)">
<path d="M15.3122 10.6154C15.6233 10.6154 15.8862 10.5065 16.101 10.2887C16.3157 10.071 16.4231 9.80656 16.4231 9.49547C16.4231 9.18439 16.3142 8.92147 16.0964 8.70672C15.8787 8.49199 15.6143 8.38463 15.3032 8.38463C14.9921 8.38463 14.7292 8.4935 14.5144 8.71125C14.2997 8.92902 14.1923 9.19344 14.1923 9.50453C14.1923 9.81561 14.3012 10.0785 14.519 10.2933C14.7367 10.508 15.0011 10.6154 15.3122 10.6154ZM8.69682 10.6154C9.00791 10.6154 9.27083 10.5065 9.48558 10.2887C9.70033 10.071 9.8077 9.80656 9.8077 9.49547C9.8077 9.18439 9.69882 8.92147 9.48105 8.70672C9.26328 8.49199 8.99886 8.38463 8.68777 8.38463C8.37669 8.38463 8.11377 8.4935 7.89902 8.71125C7.68429 8.92902 7.57692 9.19344 7.57692 9.50453C7.57692 9.81561 7.6858 10.0785 7.90355 10.2933C8.12132 10.508 8.38574 10.6154 8.69682 10.6154ZM12 16.8846C12.9538 16.8846 13.8324 16.6215 14.6356 16.0952C15.4388 15.5689 16.0423 14.8705 16.4462 14H15.45C15.0833 14.6167 14.5958 15.1042 13.9875 15.4625C13.3792 15.8208 12.7167 16 12 16C11.2833 16 10.6208 15.8208 10.0125 15.4625C9.40417 15.1042 8.91667 14.6167 8.55 14H7.55385C7.95768 14.8705 8.56121 15.5689 9.36443 16.0952C10.1676 16.6215 11.0462 16.8846 12 16.8846ZM12.0034 21C10.7588 21 9.58872 20.7638 8.4931 20.2915C7.39748 19.8192 6.44444 19.1782 5.63397 18.3685C4.82352 17.5588 4.18192 16.6066 3.70915 15.512C3.23638 14.4174 3 13.2479 3 12.0034C3 10.7588 3.23616 9.58872 3.70848 8.4931C4.18081 7.39748 4.82183 6.44444 5.63153 5.63398C6.44123 4.82353 7.39337 4.18192 8.48795 3.70915C9.58255 3.23638 10.7521 3 11.9966 3C13.2412 3 14.4113 3.23616 15.5069 3.70847C16.6025 4.18081 17.5556 4.82182 18.366 5.63152C19.1765 6.44122 19.8181 7.39337 20.2908 8.48795C20.7636 9.58255 21 10.7521 21 11.9966C21 13.2412 20.7638 14.4113 20.2915 15.5069C19.8192 16.6025 19.1782 17.5556 18.3685 18.366C17.5588 19.1765 16.6066 19.8181 15.512 20.2909C14.4174 20.7636 13.2479 21 12.0034 21ZM12 20C14.2333 20 16.125 19.225 17.675 17.675C19.225 16.125 20 14.2333 20 12C20 9.76667 19.225 7.875 17.675 6.325C16.125 4.775 14.2333 4 12 4C9.76667 4 7.875 4.775 6.325 6.325C4.775 7.875 4 9.76667 4 12C4 14.2333 4.775 16.125 6.325 17.675C7.875 19.225 9.76667 20 12 20Z" fill="#4CA751"/>
</g>
</svg>
