<svg width="24" height="24" viewBox="0 0 24 24" fill="none" xmlns="http://www.w3.org/2000/svg">
<path d="M11.9534 7.52883C12.6621 7.52883 13.3413 7.17164 13.8659 6.52336C14.3449 5.93133 14.6196 5.18461 14.6196 4.47398C14.6196 3.04242 13.4735 1.96289 11.9534 1.96289C10.4332 1.96289 9.28711 3.04102 9.28711 4.47398C9.28711 5.18461 9.5618 5.93133 10.0409 6.52336C10.5654 7.17211 11.2446 7.52883 11.9534 7.52883ZM11.9534 2.73633C13.0502 2.73633 13.8462 3.46711 13.8462 4.47398C13.8462 5.73961 12.8107 6.75539 11.9534 6.75539C10.9048 6.75539 10.0605 5.50711 10.0605 4.47398C10.0605 3.46898 10.8565 2.73633 11.9534 2.73633Z" fill="#606060"/>
<path d="M8.79776 11.24L8.52635 15.1114C8.52278 15.1621 8.52922 15.213 8.54531 15.2611C8.56139 15.3093 8.58681 15.3538 8.62011 15.3922C8.65341 15.4305 8.69394 15.4619 8.73938 15.4846C8.78482 15.5073 8.83428 15.5208 8.88494 15.5244H8.91213C9.00996 15.5243 9.10412 15.4872 9.17569 15.4205C9.24726 15.3538 9.29092 15.2624 9.29791 15.1649L9.56932 11.2967C9.57289 11.2461 9.56644 11.1952 9.55036 11.147C9.53427 11.0989 9.50885 11.0543 9.47555 11.016C9.44225 10.9776 9.40173 10.9462 9.35629 10.9235C9.31085 10.9009 9.26139 10.8873 9.21072 10.8838C9.16006 10.8802 9.10919 10.8866 9.06102 10.9027C9.01285 10.9188 8.96832 10.9442 8.92997 10.9775C8.89162 11.0108 8.86021 11.0514 8.83753 11.0968C8.81484 11.1422 8.80133 11.1917 8.79776 11.2424V11.24Z" fill="#606060"/>
<path d="M17.1981 15.5239C17.303 15.5147 17.4 15.4641 17.4677 15.3835C17.5355 15.3028 17.5685 15.1986 17.5595 15.0936C17.5595 15.0936 17.1508 12.1625 17.0908 11.1791C16.9797 9.41332 15.9011 7.99676 14.2159 7.73895C13.6234 7.64801 12.5472 7.57957 11.9847 7.5791C11.2168 7.5924 10.4502 7.64544 9.6878 7.73801C8.89742 7.84621 8.17354 8.23865 7.65155 8.84191C7.10311 9.4752 6.85795 10.2847 6.8078 11.181C6.75155 12.1654 6.37889 15.0979 6.37889 15.0979C6.37261 15.1487 6.3765 15.2003 6.39032 15.2496C6.40414 15.2989 6.42763 15.345 6.45941 15.3852C6.49119 15.4254 6.53064 15.4588 6.57546 15.4836C6.62028 15.5084 6.66958 15.5241 6.7205 15.5297C6.77142 15.5352 6.82295 15.5307 6.87208 15.5162C6.92121 15.5017 6.96698 15.4776 7.00672 15.4453C7.04646 15.4129 7.07938 15.373 7.10357 15.3279C7.12776 15.2827 7.14274 15.2332 7.14764 15.1822C7.14764 15.1822 7.52592 12.2179 7.57983 11.2236C7.6567 9.81457 8.49061 8.68207 9.79327 8.50488C10.5203 8.41658 11.2515 8.36588 11.9837 8.35301C12.5078 8.35301 13.548 8.41957 14.0983 8.50395C14.7033 8.59553 15.2565 8.89804 15.6601 9.35801C16.0895 9.85113 16.2756 10.5135 16.3164 11.226C16.3759 12.2216 16.7912 15.1864 16.7912 15.1864C16.8063 15.2826 16.8559 15.37 16.9308 15.4321C17.0058 15.4943 17.1008 15.5269 17.1981 15.5239Z" fill="#606060"/>
<path d="M14.6844 10.8817C14.6335 10.8852 14.5838 10.8988 14.5381 10.9216C14.4925 10.9444 14.4518 10.976 14.4184 11.0146C14.385 11.0532 14.3596 11.098 14.3436 11.1465C14.3277 11.195 14.3215 11.2461 14.3253 11.297L14.5972 15.168C14.604 15.2656 14.6475 15.357 14.719 15.4238C14.7905 15.4906 14.8847 15.5278 14.9825 15.528H15.0102C15.1125 15.5206 15.2076 15.473 15.2749 15.3956C15.3421 15.3182 15.3759 15.2173 15.3688 15.115L15.0969 11.2436C15.0936 11.1927 15.0804 11.143 15.0578 11.0973C15.0353 11.0516 15.004 11.0107 14.9657 10.9771C14.9274 10.9435 14.8828 10.9178 14.8346 10.9014C14.7863 10.885 14.7353 10.8783 14.6844 10.8817Z" fill="#606060"/>
<path d="M14.4205 19.0255L16.2805 17.2124C16.3321 17.162 16.3687 17.0982 16.386 17.0282C16.4032 16.9582 16.4006 16.8847 16.3783 16.8161C16.356 16.7475 16.315 16.6865 16.2599 16.6399C16.2047 16.5934 16.1377 16.5633 16.0663 16.5529L13.4961 16.1779L12.3468 13.8505C12.3148 13.7858 12.2654 13.7312 12.2041 13.6931C12.1428 13.655 12.0721 13.6348 11.9999 13.6348C11.9277 13.6348 11.8569 13.655 11.7956 13.6931C11.7343 13.7312 11.6849 13.7858 11.653 13.8505L10.5036 16.1793L7.93347 16.5543C7.86209 16.5647 7.79504 16.5948 7.73991 16.6414C7.68477 16.6879 7.64374 16.7489 7.62145 16.8175C7.59917 16.8861 7.59652 16.9596 7.6138 17.0296C7.63108 17.0996 7.66761 17.1634 7.71925 17.2138L9.57925 19.0269L9.1405 21.5849C9.12809 21.6562 9.13594 21.7296 9.16316 21.7967C9.19038 21.8637 9.23589 21.9218 9.2945 21.9643C9.35311 22.0068 9.42247 22.032 9.49469 22.037C9.56691 22.042 9.63908 22.0267 9.703 21.9927L11.9999 20.7843L14.2968 21.9927C14.3523 22.0218 14.414 22.0371 14.4768 22.0372C14.5331 22.0372 14.5887 22.0248 14.6397 22.001C14.6908 21.9772 14.736 21.9426 14.7723 21.8995C14.8086 21.8565 14.835 21.806 14.8498 21.7517C14.8646 21.6973 14.8673 21.6404 14.8578 21.5849L14.4205 19.0255ZM11.8199 20.0052C11.3708 20.234 10.0349 20.9427 10.0349 20.9427L10.3757 18.9547C10.3863 18.893 10.3817 18.8295 10.3623 18.7699C10.343 18.7103 10.3094 18.6563 10.2646 18.6126L8.82035 17.2063L10.8163 16.9161C10.8783 16.9071 10.9372 16.8831 10.9879 16.8463C11.0386 16.8095 11.0796 16.7609 11.1074 16.7047L11.998 14.8958L12.8886 16.7047C12.9164 16.7609 12.9574 16.8095 13.0081 16.8463C13.0588 16.8831 13.1177 16.9071 13.1797 16.9161L15.1757 17.2063L13.7314 18.6126C13.6866 18.6563 13.653 18.7103 13.6337 18.7699C13.6143 18.8295 13.6098 18.893 13.6203 18.9547L13.9611 20.9427C13.9611 20.9427 12.6252 20.233 12.1761 20.0052C12.1214 19.9757 12.0602 19.9602 11.998 19.9602C11.9358 19.9602 11.8746 19.9757 11.8199 20.0052Z" fill="#606060"/>
<path d="M22.6237 17.7288L20.7445 17.4555L19.9041 15.753C19.8722 15.6882 19.8229 15.6336 19.7616 15.5955C19.7003 15.5573 19.6296 15.5371 19.5574 15.5371C19.4852 15.5371 19.4145 15.5573 19.3532 15.5955C19.292 15.6336 19.2426 15.6882 19.2108 15.753L18.3703 17.4555L16.4911 17.7288C16.4197 17.7392 16.3527 17.7693 16.2975 17.8158C16.2424 17.8624 16.2014 17.9234 16.1791 17.992C16.1568 18.0606 16.1541 18.1341 16.1714 18.2041C16.1887 18.2741 16.2252 18.3379 16.2769 18.3883L17.6362 19.7139L17.3152 21.5852C17.3027 21.6565 17.3106 21.7299 17.3378 21.7969C17.365 21.864 17.4105 21.9221 17.4691 21.9646C17.5278 22.0071 17.5971 22.0323 17.6693 22.0373C17.7416 22.0423 17.8137 22.027 17.8777 21.993L19.5581 21.1094L21.2391 21.993C21.2946 22.0221 21.3564 22.0373 21.4191 22.0375C21.4754 22.0374 21.531 22.0251 21.582 22.0013C21.6331 21.9775 21.6783 21.9429 21.7146 21.8998C21.7509 21.8567 21.7773 21.8063 21.7921 21.7519C21.8069 21.6976 21.8096 21.6407 21.8002 21.5852L21.4791 19.7139L22.8384 18.3883C22.8901 18.3379 22.9266 18.2741 22.9439 18.2041C22.9612 18.1341 22.9585 18.0606 22.9362 17.992C22.914 17.9234 22.8729 17.8624 22.8178 17.8158C22.7626 17.7693 22.6956 17.7392 22.6242 17.7288H22.6237ZM19.3777 20.3303C19.0828 20.4784 18.21 20.9439 18.21 20.9439L18.4331 19.6441C18.4437 19.5823 18.4391 19.5189 18.4198 19.4593C18.4004 19.3997 18.3669 19.3457 18.322 19.3019L17.3775 18.3813L18.6825 18.1938C18.7446 18.1848 18.8036 18.1608 18.8543 18.1239C18.905 18.0869 18.946 18.0382 18.9736 17.9819L19.5572 16.7997L20.1408 17.9819C20.1686 18.0382 20.2097 18.0869 20.2604 18.1238C20.3112 18.1607 20.3702 18.1847 20.4323 18.1938L21.7369 18.3813L20.7928 19.3019C20.7479 19.3456 20.7143 19.3996 20.6949 19.4592C20.6756 19.5189 20.671 19.5823 20.6817 19.6441L20.9067 20.9439C20.9067 20.9439 20.0344 20.4784 19.7395 20.3303C19.6839 20.3004 19.6217 20.2847 19.5586 20.2847C19.4954 20.2847 19.4333 20.3004 19.3777 20.3303Z" fill="#606060"/>
<path d="M7.50949 17.7288L5.63027 17.4555L4.7898 15.753C4.75796 15.6882 4.70861 15.6336 4.64734 15.5955C4.58607 15.5573 4.51534 15.5371 4.44316 15.5371C4.37098 15.5371 4.30025 15.5573 4.23898 15.5955C4.17771 15.6336 4.12836 15.6882 4.09652 15.753L3.25605 17.4555L1.37683 17.7288C1.30545 17.7392 1.2384 17.7693 1.18326 17.8158C1.12813 17.8624 1.0871 17.9234 1.06481 17.992C1.04253 18.0606 1.03988 18.1341 1.05716 18.2041C1.07444 18.2741 1.11097 18.3379 1.16261 18.3883L2.52199 19.7139L2.20324 21.5852C2.19082 21.6565 2.19867 21.7299 2.22589 21.7969C2.25312 21.864 2.29862 21.9221 2.35723 21.9646C2.41584 22.0071 2.4852 22.0323 2.55742 22.0373C2.62964 22.0423 2.70182 22.027 2.76574 21.993L4.44668 21.1094L6.12715 21.993C6.1827 22.0221 6.24444 22.0373 6.30715 22.0375C6.36346 22.0374 6.41907 22.0251 6.47012 22.0013C6.52116 21.9775 6.5664 21.9429 6.60268 21.8998C6.63896 21.8567 6.66542 21.8063 6.68019 21.7519C6.69497 21.6976 6.69772 21.6407 6.68824 21.5852L6.36715 19.7139L7.72652 18.3883C7.77816 18.3379 7.81469 18.2741 7.83197 18.2041C7.84926 18.1341 7.84661 18.0606 7.82432 17.992C7.80204 17.9234 7.76101 17.8624 7.70587 17.8158C7.65073 17.7693 7.58368 17.7392 7.5123 17.7288H7.50949ZM4.26574 20.3303L3.09621 20.9439L3.31886 19.6441C3.32954 19.5823 3.32501 19.5189 3.30565 19.4592C3.28629 19.3996 3.2527 19.3456 3.20777 19.3019L2.26371 18.3813L3.56824 18.1938C3.63036 18.1847 3.68935 18.1607 3.74014 18.1238C3.79093 18.0869 3.83199 18.0382 3.8598 17.9819L4.4434 16.7997L5.02699 17.9819C5.05462 18.0382 5.09558 18.0869 5.1463 18.1239C5.19703 18.1608 5.25599 18.1848 5.31808 18.1938L6.62308 18.3813L5.67855 19.3019C5.63369 19.3457 5.60014 19.3997 5.58079 19.4593C5.56144 19.5189 5.55686 19.5823 5.56746 19.6441L5.79058 20.9439L4.62293 20.3303C4.56916 20.2974 4.50736 20.28 4.44433 20.28C4.38131 20.28 4.3195 20.2974 4.26574 20.3303Z" fill="#606060"/>
</svg>
