<svg width="24" height="24" viewBox="0 0 24 24" fill="none" xmlns="http://www.w3.org/2000/svg">
<path d="M7.50009 17.625C7.59609 17.625 7.69209 17.5883 7.76522 17.5151L11.7177 13.5626C11.9142 13.6931 12.1362 13.7884 12.3751 13.8371V14.625C12.3751 14.8324 12.5427 15 12.7501 15C12.9575 15 13.1251 14.8324 13.1251 14.625V13.8371C13.9797 13.6627 14.6251 12.9056 14.6251 12C14.6251 11.6186 14.5092 11.2642 14.3127 10.9676L14.8902 10.3901C15.0368 10.2435 15.0368 10.0065 14.8902 9.85987C14.7436 9.71325 14.5066 9.71325 14.36 9.85987L13.7825 10.4374C13.586 10.3069 13.364 10.2116 13.1251 10.1629V6C13.1251 5.79263 12.9575 5.625 12.7501 5.625C12.5427 5.625 12.3751 5.79263 12.3751 6V10.1629C11.5205 10.3372 10.8751 11.0944 10.8751 12C10.8751 12.3814 10.991 12.7357 11.1875 13.0324L7.23497 16.9849C7.08834 17.1315 7.08834 17.3685 7.23497 17.5151C7.30809 17.5883 7.40409 17.625 7.50009 17.625ZM12.7501 10.875C13.3703 10.875 13.8751 11.3797 13.8751 12C13.8751 12.6203 13.3703 13.125 12.7501 13.125C12.1298 13.125 11.6251 12.6203 11.6251 12C11.6251 11.3797 12.1298 10.875 12.7501 10.875Z" fill="#606060"/>
<path d="M8.51679 3.58865C8.57116 3.58865 8.62629 3.57703 8.67841 3.55153C9.31704 3.2459 9.98379 3.01415 10.6607 2.86378C10.8628 2.81878 10.9899 2.61815 10.9453 2.41603C10.8999 2.2139 10.6997 2.08865 10.4975 2.1314C9.76554 2.2949 9.04441 2.54503 8.35479 2.8754C8.16804 2.96465 8.08891 3.18853 8.17854 3.37528C8.24266 3.51028 8.37691 3.58865 8.51679 3.58865Z" fill="#606060"/>
<path d="M3.1628 10.1984C3.19018 10.2044 3.21755 10.2071 3.24455 10.2071C3.4163 10.2071 3.57118 10.0882 3.61055 9.91343C3.7613 9.23356 3.99418 8.56568 4.30205 7.92818C4.39205 7.74181 4.31367 7.51756 4.1273 7.42756C3.94167 7.33831 3.7163 7.41631 3.62667 7.60231C3.29367 8.29193 3.04168 9.01493 2.87818 9.75068C2.83318 9.95318 2.96068 10.1534 3.1628 10.1984Z" fill="#606060"/>
<path d="M12.7501 1.875C12.5427 1.875 12.3751 2.04263 12.3751 2.25C12.3751 2.45737 12.5427 2.625 12.7501 2.625C17.9195 2.625 22.1251 6.83063 22.1251 12C22.1251 17.1694 17.9195 21.375 12.7501 21.375C7.76447 21.375 3.67697 17.463 3.39234 12.5475L4.23497 13.3901C4.30809 13.4633 4.40409 13.5 4.50009 13.5C4.59609 13.5 4.69209 13.4633 4.76522 13.3901C4.91184 13.2435 4.91184 13.0065 4.76522 12.8599L3.26522 11.3599C3.11859 11.2133 2.88159 11.2133 2.73497 11.3599L1.23497 12.8599C1.08834 13.0065 1.08834 13.2435 1.23497 13.3901C1.38159 13.5367 1.61859 13.5367 1.76522 13.3901L2.63822 12.5171C2.90822 17.8605 7.34072 22.125 12.7501 22.125C18.3331 22.125 22.8751 17.583 22.8751 12C22.8751 6.417 18.3331 1.875 12.7501 1.875Z" fill="#606060"/>
<path d="M5.12961 6.29966C5.24099 6.29966 5.35124 6.25053 5.42511 6.15603C5.85786 5.60403 6.35624 5.10603 6.90636 4.67516C7.06949 4.54728 7.09799 4.31178 6.97011 4.14866C6.84224 3.98591 6.60711 3.95666 6.44361 4.08491C5.84624 4.55291 5.30511 5.09403 4.83486 5.69328C4.70699 5.85641 4.73549 6.09191 4.89861 6.21978C4.96686 6.27341 5.04861 6.29966 5.12961 6.29966Z" fill="#606060"/>
<path d="M12.75 4.875C12.9574 4.875 13.125 4.70738 13.125 4.5V3.75C13.125 3.54263 12.9574 3.375 12.75 3.375C12.5426 3.375 12.375 3.54263 12.375 3.75V4.5C12.375 4.70738 12.5426 4.875 12.75 4.875Z" fill="#606060"/>
<path d="M12.75 19.125C12.5426 19.125 12.375 19.2926 12.375 19.5V20.25C12.375 20.4574 12.5426 20.625 12.75 20.625C12.9574 20.625 13.125 20.4574 13.125 20.25V19.5C13.125 19.2926 12.9574 19.125 12.75 19.125Z" fill="#606060"/>
<path d="M16.1755 18.6826L16.5505 19.3321C16.6203 19.4521 16.7459 19.5196 16.8756 19.5196C16.9394 19.5196 17.0039 19.5035 17.0628 19.4694C17.2424 19.3659 17.3039 19.1364 17.2 18.9571L16.825 18.3076C16.7215 18.1284 16.4913 18.0669 16.3128 18.1704C16.1331 18.2739 16.0716 18.5034 16.1755 18.6826Z" fill="#606060"/>
<path d="M19.0573 16.0748L19.7068 16.4498C19.7661 16.4839 19.8306 16.5 19.8943 16.5C20.0241 16.5 20.1501 16.4325 20.2195 16.3125C20.323 16.1329 20.2615 15.9038 20.0822 15.8003L19.4327 15.4253C19.2535 15.3218 19.024 15.3833 18.9205 15.5625C18.817 15.7418 18.8781 15.9713 19.0573 16.0748Z" fill="#606060"/>
<path d="M19.875 12C19.875 12.2074 20.0426 12.375 20.25 12.375H21C21.2074 12.375 21.375 12.2074 21.375 12C21.375 11.7926 21.2074 11.625 21 11.625H20.25C20.0426 11.625 19.875 11.7926 19.875 12Z" fill="#606060"/>
<path d="M6.06773 15.4255L5.41823 15.8005C5.2386 15.904 5.1771 16.1335 5.28098 16.3128C5.35073 16.4328 5.47635 16.5003 5.6061 16.5003C5.66985 16.5003 5.73435 16.4841 5.79323 16.45L6.44273 16.075C6.62235 15.9715 6.68385 15.742 6.57998 15.5628C6.4761 15.3831 6.24585 15.3216 6.06773 15.4255Z" fill="#606060"/>
<path d="M19.7074 7.55042L19.0579 7.92542C18.8782 8.02892 18.8167 8.25842 18.9206 8.43767C18.9904 8.55767 19.116 8.62517 19.2457 8.62517C19.3095 8.62517 19.374 8.60905 19.4329 8.57492L20.0824 8.19992C20.262 8.09642 20.3235 7.86692 20.2196 7.68767C20.1161 7.50842 19.8859 7.44655 19.7074 7.55042Z" fill="#606060"/>
<path d="M8.67526 18.3074L8.30026 18.9569C8.19676 19.1365 8.25826 19.3656 8.43751 19.4691C8.49638 19.5033 8.56088 19.5194 8.62463 19.5194C8.75438 19.5194 8.88038 19.4519 8.94976 19.3319L9.32476 18.6824C9.42826 18.5028 9.36676 18.2736 9.18751 18.1701C9.00826 18.067 8.77838 18.1285 8.67526 18.3074Z" fill="#606060"/>
<path d="M16.3128 5.82973C16.3716 5.86385 16.4361 5.87998 16.4999 5.87998C16.6296 5.87998 16.7556 5.81248 16.825 5.69248L17.2 5.04298C17.3035 4.86335 17.242 4.63423 17.0628 4.53073C16.8835 4.42723 16.654 4.48873 16.5505 4.66798L16.1755 5.31748C16.0716 5.49673 16.1331 5.72623 16.3128 5.82973Z" fill="#606060"/>
</svg>
