<svg width="24" height="24" viewBox="0 0 24 24" fill="none" xmlns="http://www.w3.org/2000/svg">
<mask id="mask0_250_24468" style="mask-type:alpha" maskUnits="userSpaceOnUse" x="0" y="0" width="24" height="24">
<rect width="24" height="24" fill="#D9D9D9"/>
</mask>
<g mask="url(#mask0_250_24468)">
<path d="M5.61538 20C5.15513 20 4.77083 19.8458 4.4625 19.5375C4.15417 19.2292 4 18.8449 4 18.3846V13H5V18.3846C5 18.5385 5.0641 18.6795 5.1923 18.8077C5.32052 18.9359 5.46154 19 5.61538 19H11V20H5.61538ZM13 20V19H18.3846C18.5385 19 18.6795 18.9359 18.8077 18.8077C18.9359 18.6795 19 18.5385 19 18.3846V13H20V18.3846C20 18.8449 19.8458 19.2292 19.5375 19.5375C19.2292 19.8458 18.8449 20 18.3846 20H13ZM7.5 16.5L9.46152 13.9231L11.2116 16.0385L13.8269 12.7308L16.6538 16.5H7.5ZM4 11V5.61537C4 5.15512 4.15417 4.77083 4.4625 4.4625C4.77083 4.15417 5.15513 4 5.61538 4H11V5H5.61538C5.46154 5 5.32052 5.0641 5.1923 5.1923C5.0641 5.32052 5 5.46154 5 5.61537V11H4ZM19 11V5.61537C19 5.46154 18.9359 5.32052 18.8077 5.1923C18.6795 5.0641 18.5385 5 18.3846 5H13V4H18.3846C18.8449 4 19.2292 4.15417 19.5375 4.4625C19.8458 4.77083 20 5.15512 20 5.61537V11H19ZM15.3077 9.8077C14.9897 9.8077 14.7244 9.70128 14.5115 9.48845C14.2987 9.27563 14.1923 9.01025 14.1923 8.6923C14.1923 8.37435 14.2987 8.10897 14.5115 7.89615C14.7244 7.68333 14.9897 7.57693 15.3077 7.57693C15.6257 7.57693 15.891 7.68333 16.1039 7.89615C16.3167 8.10897 16.4231 8.37435 16.4231 8.6923C16.4231 9.01025 16.3167 9.27563 16.1039 9.48845C15.891 9.70128 15.6257 9.8077 15.3077 9.8077Z" fill="#4CA751"/>
</g>
</svg>
