<svg width="34" height="34" viewBox="0 0 34 34" fill="none" xmlns="http://www.w3.org/2000/svg">
<g clip-path="url(#clip0_413_403)">
<path d="M33.984 17.3181C33.984 15.9251 33.8683 14.9086 33.618 13.8545H17.3389V20.1416H26.8943C26.7017 21.7041 25.6614 24.0571 23.3496 25.6382L23.3172 25.8487L28.4643 29.7448L28.8209 29.7796C32.0959 26.8242 33.984 22.4758 33.984 17.3181Z" fill="#4285F4"/>
<path d="M17.3389 33.8834C22.0202 33.8834 25.9503 32.3774 28.8209 29.7798L23.3496 25.6384C21.8854 26.6361 19.9203 27.3326 17.3389 27.3326C12.7538 27.3326 8.86224 24.3773 7.47502 20.2925L7.27168 20.3094L1.9196 24.3565L1.84961 24.5466C4.70083 30.0808 10.5575 33.8834 17.3389 33.8834Z" fill="#34A853"/>
<path d="M7.47482 20.2925C7.10879 19.2383 6.89695 18.1088 6.89695 16.9418C6.89695 15.7746 7.10879 14.6452 7.45556 13.5911L7.44587 13.3666L2.02672 9.25439L1.84941 9.3368C0.674289 11.6334 0 14.2123 0 16.9418C0 19.6712 0.674289 22.2501 1.84941 24.5466L7.47482 20.2925Z" fill="#FBBC05"/>
<path d="M17.3389 6.55071C20.5946 6.55071 22.7908 7.92485 24.0431 9.0732L28.9365 4.40482C25.9312 1.67534 22.0202 0 17.3389 0C10.5575 0 4.70083 3.80242 1.84961 9.33663L7.45576 13.5909C8.86224 9.50611 12.7538 6.55071 17.3389 6.55071Z" fill="#EB4335"/>
</g>
<defs>
<clipPath id="clip0_413_403">
<rect width="34" height="34" fill="white"/>
</clipPath>
</defs>
</svg>
