<svg width="24" height="24" viewBox="0 0 24 24" fill="none" xmlns="http://www.w3.org/2000/svg">
<g clip-path="url(#clip0_8_734)">
<path d="M24.2663 12.2765C24.2663 11.4608 24.2001 10.6406 24.059 9.83813H12.7402V14.4591H19.222C18.953 15.9495 18.0888 17.2679 16.8233 18.1056V21.104H20.6903C22.9611 19.014 24.2663 15.9274 24.2663 12.2765Z" fill="#4285F4"/>
<path d="M12.7403 24.0008C15.9768 24.0008 18.7062 22.9382 20.6948 21.1039L16.8278 18.1055C15.7519 18.8375 14.363 19.252 12.7448 19.252C9.61413 19.252 6.95971 17.1399 6.00729 14.3003H2.01685V17.3912C4.05396 21.4434 8.20314 24.0008 12.7403 24.0008Z" fill="#34A853"/>
<path d="M6.00277 14.3002C5.50011 12.8099 5.50011 11.196 6.00277 9.70569V6.61475H2.01674C0.314734 10.0055 0.314734 14.0004 2.01674 17.3912L6.00277 14.3002Z" fill="#FBBC04"/>
<path d="M12.7403 4.74966C14.4512 4.72321 16.1047 5.36697 17.3437 6.54867L20.7697 3.12262C18.6003 1.08551 15.721 -0.034466 12.7403 0.000808666C8.20314 0.000808666 4.05396 2.55822 2.01685 6.61481L6.00288 9.70575C6.95089 6.86173 9.60972 4.74966 12.7403 4.74966Z" fill="#EA4335"/>
</g>
<defs>
<clipPath id="clip0_8_734">
<rect width="24" height="24" fill="white" transform="translate(0.5)"/>
</clipPath>
</defs>
</svg>
