<svg width="32" height="32" viewBox="0 0 32 32" fill="none" xmlns="http://www.w3.org/2000/svg">
<mask id="mask0_80_5264" style="mask-type:alpha" maskUnits="userSpaceOnUse" x="0" y="0" width="32" height="32">
<rect width="32" height="32" fill="#D9D9D9"/>
</mask>
<g mask="url(#mask0_80_5264)">
<path d="M8.00033 25.3333H12.9234V18.5641C12.9234 18.2589 13.0266 18.0032 13.233 17.7968C13.4394 17.5904 13.6952 17.4871 14.0003 17.4871H18.0003C18.3055 17.4871 18.5612 17.5904 18.7676 17.7968C18.974 18.0032 19.0773 18.2589 19.0773 18.5641V25.3333H24.0003V13.7436C24.0003 13.6068 23.9704 13.4829 23.9106 13.3718C23.8507 13.2607 23.7695 13.1624 23.667 13.0769L16.4875 7.66664C16.3507 7.54698 16.1883 7.48714 16.0003 7.48714C15.8123 7.48714 15.6499 7.54698 15.5132 7.66664L8.33366 13.0769C8.2311 13.1624 8.1499 13.2607 8.09006 13.3718C8.03024 13.4829 8.00033 13.6068 8.00033 13.7436V25.3333ZM6.66699 25.3333V13.7436C6.66699 13.4025 6.74327 13.0795 6.89583 12.7743C7.0484 12.4692 7.2593 12.2179 7.52853 12.0205L14.708 6.58458C15.0837 6.2974 15.5131 6.15381 15.9962 6.15381C16.4793 6.15381 16.9114 6.2974 17.2926 6.58458L24.4721 12.0205C24.7413 12.2179 24.9522 12.4692 25.1048 12.7743C25.2574 13.0795 25.3337 13.4025 25.3337 13.7436V25.3333C25.3337 25.6906 25.2008 26.0021 24.935 26.2679C24.6691 26.5337 24.3576 26.6666 24.0003 26.6666H18.8208C18.5157 26.6666 18.2599 26.5634 18.0535 26.357C17.8471 26.1506 17.7439 25.8949 17.7439 25.5897V18.8205H14.2567V25.5897C14.2567 25.8949 14.1535 26.1506 13.9471 26.357C13.7407 26.5634 13.4849 26.6666 13.1798 26.6666H8.00033C7.64306 26.6666 7.33151 26.5337 7.06569 26.2679C6.79989 26.0021 6.66699 25.6906 6.66699 25.3333Z" fill="white"/>
</g>
</svg>
