<svg width="24" height="24" viewBox="0 0 24 24" fill="none" xmlns="http://www.w3.org/2000/svg">
<path d="M21.1925 12.5957C20.9184 12.5957 20.7356 12.7785 20.7356 13.0526V18.9929C20.7356 19.267 20.5528 19.4498 20.2787 19.4498H3.82879C3.55462 19.4498 3.37186 19.267 3.37186 18.9929V13.0526C3.37186 12.7785 3.18907 12.5957 2.91493 12.5957C2.6408 12.5957 2.45801 12.7785 2.45801 13.0526V18.9929C2.45801 19.7697 3.05202 20.3637 3.82883 20.3637H20.2787C21.0555 20.3637 21.6495 19.7697 21.6495 18.9929V13.0526C21.6495 12.7785 21.4667 12.5957 21.1925 12.5957Z" fill="#606060"/>
<path d="M20.7346 6.19922H3.37082C2.59401 6.19922 2 6.79323 2 7.57004V10.4945C2 11.1341 2.45693 11.6825 3.05098 11.8196L10.2249 13.4189V14.8811C10.2249 15.1552 10.4077 15.338 10.6819 15.338H13.4235C13.6977 15.338 13.8804 15.1552 13.8804 14.8811V13.4189L21.0544 11.8196C21.6485 11.6825 22.1054 11.1341 22.1054 10.4944V7.57C22.1054 6.79323 21.5114 6.19922 20.7346 6.19922ZM12.9666 14.4241H11.1388V12.5964H12.9666V14.4241ZM21.1915 10.4944C21.1915 10.7229 21.0544 10.9057 20.8259 10.9514L13.8804 12.505V12.1394C13.8804 11.8652 13.6976 11.6825 13.4235 11.6825H10.6819C10.4077 11.6825 10.2249 11.8653 10.2249 12.1394V12.505L3.27944 10.9514C3.05098 10.9057 2.91389 10.7229 2.91389 10.4945V7.57004C2.91389 7.29587 3.09669 7.11311 3.37082 7.11311H20.7346C21.0087 7.11311 21.1915 7.2959 21.1915 7.57004V10.4944Z" fill="#606060"/>
<path d="M14.3377 3H9.76828C8.99147 3 8.39746 3.59401 8.39746 4.37082V4.82774C8.39746 5.10192 8.58026 5.28467 8.85439 5.28467C9.12852 5.28467 9.31131 5.10188 9.31131 4.82774V4.37082C9.31131 4.09665 9.49411 3.91389 9.76824 3.91389H14.3377C14.6118 3.91389 14.7946 4.09669 14.7946 4.37082V4.82774C14.7946 5.10192 14.9774 5.28467 15.2515 5.28467C15.5257 5.28467 15.7084 5.10188 15.7084 4.82774V4.37082C15.7085 3.59401 15.1145 3 14.3377 3Z" fill="#606060"/>
</svg>
