<svg width="32" height="32" viewBox="0 0 32 32" fill="none" xmlns="http://www.w3.org/2000/svg">
<mask id="mask0_281_33161" style="mask-type:alpha" maskUnits="userSpaceOnUse" x="0" y="0" width="32" height="32">
<rect width="32" height="32" fill="#D9D9D9"/>
</mask>
<g mask="url(#mask0_281_33161)">
<path d="M9.58975 23.3333L7.60192 25.3212C7.30726 25.6158 6.9666 25.6835 6.57995 25.5242C6.19332 25.3649 6 25.0751 6 24.6548V8.8846C6 8.34765 6.17986 7.89931 6.53958 7.53958C6.89931 7.17986 7.34765 7 7.8846 7H25.1154C25.6524 7 26.1007 7.17986 26.4604 7.53958C26.8201 7.89931 27 8.34765 27 8.8846V21.4487C27 21.9857 26.8201 22.434 26.4604 22.7937C26.1007 23.1535 25.6524 23.3333 25.1154 23.3333H9.58975ZM9.09167 22.1667H25.1154C25.2949 22.1667 25.4594 22.0919 25.609 21.9423C25.7585 21.7927 25.8333 21.6282 25.8333 21.4487V8.8846C25.8333 8.70513 25.7585 8.5406 25.609 8.39102C25.4594 8.24145 25.2949 8.16667 25.1154 8.16667H7.8846C7.70513 8.16667 7.5406 8.24145 7.39102 8.39102C7.24145 8.5406 7.16667 8.70513 7.16667 8.8846V24.0849L9.09167 22.1667ZM10.6667 19.25H17.6667C17.8327 19.25 17.9714 19.1943 18.0828 19.0828C18.1943 18.9714 18.25 18.8327 18.25 18.6667C18.25 18.5006 18.1943 18.3619 18.0828 18.2505C17.9714 18.1391 17.8327 18.0833 17.6667 18.0833H10.6667C10.5006 18.0833 10.3619 18.1391 10.2505 18.2505C10.1391 18.3619 10.0833 18.5006 10.0833 18.6667C10.0833 18.8327 10.1391 18.9714 10.2505 19.0828C10.3619 19.1943 10.5006 19.25 10.6667 19.25ZM10.6667 15.75H22.3333C22.4994 15.75 22.6381 15.6943 22.7495 15.5828C22.8609 15.4714 22.9167 15.3327 22.9167 15.1667C22.9167 15.0006 22.8609 14.8619 22.7495 14.7505C22.6381 14.6391 22.4994 14.5833 22.3333 14.5833H10.6667C10.5006 14.5833 10.3619 14.6391 10.2505 14.7505C10.1391 14.8619 10.0833 15.0006 10.0833 15.1667C10.0833 15.3327 10.1391 15.4714 10.2505 15.5828C10.3619 15.6943 10.5006 15.75 10.6667 15.75ZM10.6667 12.25H22.3333C22.4994 12.25 22.6381 12.1943 22.7495 12.0828C22.8609 11.9714 22.9167 11.8327 22.9167 11.6667C22.9167 11.5006 22.8609 11.3619 22.7495 11.2505C22.6381 11.1391 22.4994 11.0833 22.3333 11.0833H10.6667C10.5006 11.0833 10.3619 11.1391 10.2505 11.2505C10.1391 11.3619 10.0833 11.5006 10.0833 11.6667C10.0833 11.8327 10.1391 11.9714 10.2505 12.0828C10.3619 12.1943 10.5006 12.25 10.6667 12.25Z" fill="#CBE6CC"/>
</g>
</svg>
