<svg width="32" height="32" viewBox="0 0 32 32" fill="none" xmlns="http://www.w3.org/2000/svg">
<mask id="mask0_301_20214" style="mask-type:alpha" maskUnits="userSpaceOnUse" x="0" y="0" width="32" height="32">
<rect width="32" height="32" fill="#D9D9D9"/>
</mask>
<g mask="url(#mask0_301_20214)">
<path d="M15.0007 22.3332H17.0006V14.6666H15.0007V22.3332ZM16.0006 12.3845C16.3058 12.3845 16.5615 12.2813 16.7679 12.0749C16.9743 11.8685 17.0775 11.6128 17.0775 11.3076C17.0775 11.0025 16.9743 10.7467 16.7679 10.5403C16.5615 10.3339 16.3058 10.2307 16.0006 10.2307C15.6955 10.2307 15.4397 10.3339 15.2333 10.5403C15.0269 10.7467 14.9237 11.0025 14.9237 11.3076C14.9237 11.6128 15.0269 11.8685 15.2333 12.0749C15.4397 12.2813 15.6955 12.3845 16.0006 12.3845ZM16.0029 28.6665C14.2509 28.6665 12.6042 28.3341 11.0627 27.6692C9.52118 27.0043 8.18027 26.102 7.03998 24.9622C5.89967 23.8224 4.99693 22.4821 4.33175 20.9412C3.66657 19.4004 3.33398 17.754 3.33398 16.0021C3.33398 14.2502 3.66643 12.6035 4.33132 11.062C4.99621 9.52045 5.89854 8.17954 7.03832 7.03925C8.17812 5.89894 9.51844 4.9962 11.0593 4.33102C12.6001 3.66584 14.2465 3.33325 15.9984 3.33325C17.7503 3.33325 19.397 3.6657 20.9385 4.33059C22.4801 4.99548 23.821 5.89781 24.9613 7.03759C26.1016 8.17739 27.0043 9.51771 27.6695 11.0586C28.3347 12.5994 28.6673 14.2457 28.6673 15.9977C28.6673 17.7496 28.3348 19.3963 27.6699 20.9378C27.005 22.4793 26.1027 23.8202 24.9629 24.9605C23.8231 26.1008 22.4828 27.0036 20.942 27.6688C19.4011 28.3339 17.7548 28.6665 16.0029 28.6665ZM16.0006 26.6666C18.9784 26.6666 21.5006 25.6332 23.5673 23.5666C25.634 21.4999 26.6673 18.9777 26.6673 15.9999C26.6673 13.0221 25.634 10.4999 23.5673 8.43322C21.5006 6.36655 18.9784 5.33322 16.0006 5.33322C13.0228 5.33322 10.5006 6.36655 8.43395 8.43322C6.36728 10.4999 5.33395 13.0221 5.33395 15.9999C5.33395 18.9777 6.36728 21.4999 8.43395 23.5666C10.5006 25.6332 13.0228 26.6666 16.0006 26.6666Z" fill="#606060"/>
</g>
</svg>
