<svg width="32" height="32" viewBox="0 0 32 32" fill="none" xmlns="http://www.w3.org/2000/svg">
<g clip-path="url(#clip0_428_417)">
<path d="M11.6347 24.7375C11.6347 24.7375 10.414 25.4473 12.5034 25.6875C15.0346 25.9762 16.3282 25.9349 19.1177 25.4069C19.1177 25.4069 19.8511 25.8667 20.8752 26.2651C14.6221 28.945 6.72313 26.1098 11.6347 24.7375ZM10.8706 21.2402C10.8706 21.2402 9.50149 22.2537 11.5924 22.4699C14.2963 22.7489 16.4316 22.7717 20.1266 22.0602C20.1266 22.0602 20.6377 22.5783 21.4413 22.8617C13.8809 25.0725 5.45997 23.036 10.8706 21.2402Z" fill="#5382A1"/>
<path d="M17.3126 15.3078C18.8534 17.0817 16.9078 18.678 16.9078 18.678C16.9078 18.678 20.8201 16.6584 19.0233 14.1293C17.3453 11.7709 16.0583 10.5989 23.025 6.55859C23.025 6.55859 12.0897 9.28978 17.3126 15.3078Z" fill="#E76F00"/>
<path d="M25.5829 27.3237C25.5829 27.3237 26.4862 28.0679 24.588 28.6437C20.9786 29.7372 9.56537 30.0674 6.39478 28.6873C5.25508 28.1916 7.39243 27.5035 8.0647 27.359C8.76584 27.207 9.16658 27.2354 9.16658 27.2354C7.89906 26.3424 0.973929 28.9886 5.64898 29.7463C18.3984 31.8139 28.8899 28.8154 25.5829 27.3237ZM12.222 17.6162C12.222 17.6162 6.41661 18.9952 10.1663 19.4958C11.7494 19.7078 14.9055 19.6599 17.8453 19.4135C20.2479 19.2109 22.6604 18.78 22.6604 18.78C22.6604 18.78 21.8132 19.1428 21.2003 19.5613C15.3049 21.1118 3.91608 20.3905 7.19478 18.8045C9.96759 17.4642 12.222 17.6162 12.222 17.6162ZM22.6364 23.4374C28.6295 20.3233 25.8586 17.3306 23.9245 17.7339C23.4504 17.8324 23.2391 17.9179 23.2391 17.9179C23.2391 17.9179 23.4151 17.6423 23.7512 17.523C27.5773 16.1778 30.5199 21.4903 22.516 23.5944C22.516 23.5945 22.6088 23.5116 22.6364 23.4374Z" fill="#5382A1"/>
<path d="M19.0235 0.0342722C19.0235 0.0342722 22.3425 3.3545 15.8756 8.4598C10.6898 12.5552 14.6931 14.8903 15.8734 17.5582C12.8464 14.8272 10.6249 12.4229 12.1153 10.1853C14.3027 6.90049 20.3626 5.30808 19.0235 0.0342722Z" fill="#E76F00"/>
<path d="M12.8109 31.8764C18.5634 32.2447 27.397 31.6721 27.6062 28.9502C27.6062 28.9502 27.2041 29.9821 22.8521 30.8016C17.9422 31.7255 11.8866 31.6177 8.29492 31.0255C8.29501 31.0255 9.03009 31.634 12.8109 31.8764Z" fill="#5382A1"/>
</g>
<defs>
<clipPath id="clip0_428_417">
<rect width="23.6763" height="32" fill="white" transform="translate(4)"/>
</clipPath>
</defs>
</svg>
