<svg width="32" height="32" viewBox="0 0 32 32" fill="none" xmlns="http://www.w3.org/2000/svg">
<mask id="mask0_402_439" style="mask-type:alpha" maskUnits="userSpaceOnUse" x="0" y="0" width="32" height="32">
<rect width="32" height="32" fill="#D9D9D9"/>
</mask>
<g mask="url(#mask0_402_439)">
<path d="M6.15383 26.6668C5.54017 26.6668 5.02778 26.4613 4.61667 26.0502C4.20556 25.6391 4 25.1267 4 24.513V11.4873C4 10.8737 4.20556 10.3613 4.61667 9.95016C5.02778 9.53905 5.54017 9.3335 6.15383 9.3335H12V7.48733C12 6.87366 12.2056 6.36127 12.6167 5.95016C13.0278 5.53905 13.5402 5.3335 14.1538 5.3335H17.8462C18.4598 5.3335 18.9722 5.53905 19.3833 5.95016C19.7944 6.36127 20 6.87366 20 7.48733V9.3335H25.8462C26.4598 9.3335 26.9722 9.53905 27.3833 9.95016C27.7944 10.3613 28 10.8737 28 11.4873V24.513C28 25.1267 27.7944 25.6391 27.3833 26.0502C26.9722 26.4613 26.4598 26.6668 25.8462 26.6668H6.15383ZM6.15383 25.3335H25.8462C26.0513 25.3335 26.2393 25.248 26.4103 25.0771C26.5812 24.9061 26.6667 24.7181 26.6667 24.513V11.4873C26.6667 11.2822 26.5812 11.0942 26.4103 10.9232C26.2393 10.7523 26.0513 10.6668 25.8462 10.6668H6.15383C5.94872 10.6668 5.76069 10.7523 5.58973 10.9232C5.4188 11.0942 5.33333 11.2822 5.33333 11.4873V24.513C5.33333 24.7181 5.4188 24.9061 5.58973 25.0771C5.76069 25.248 5.94872 25.3335 6.15383 25.3335ZM13.3333 9.3335H18.6667V7.48733C18.6667 7.2822 18.5812 7.09416 18.4103 6.92323C18.2393 6.7523 18.0513 6.66683 17.8462 6.66683H14.1538C13.9487 6.66683 13.7607 6.7523 13.5897 6.92323C13.4188 7.09416 13.3333 7.2822 13.3333 7.48733V9.3335Z" fill="white"/>
</g>
</svg>
