<svg width="32" height="32" viewBox="0 0 32 32" fill="none" xmlns="http://www.w3.org/2000/svg">
<mask id="mask0_80_5277" style="mask-type:alpha" maskUnits="userSpaceOnUse" x="0" y="0" width="32" height="32">
<rect width="32" height="32" fill="#D9D9D9"/>
</mask>
<g mask="url(#mask0_80_5277)">
<path d="M6.15383 26.6667C5.54017 26.6667 5.02778 26.4612 4.61667 26.05C4.20556 25.6389 4 25.1265 4 24.5129V11.4872C4 10.8735 4.20556 10.3612 4.61667 9.95004C5.02778 9.53893 5.54017 9.33337 6.15383 9.33337H12V7.48721C12 6.87354 12.2056 6.36115 12.6167 5.95004C13.0278 5.53893 13.5402 5.33337 14.1538 5.33337H17.8462C18.4598 5.33337 18.9722 5.53893 19.3833 5.95004C19.7944 6.36115 20 6.87354 20 7.48721V9.33337H25.8462C26.4598 9.33337 26.9722 9.53893 27.3833 9.95004C27.7944 10.3612 28 10.8735 28 11.4872V24.5129C28 25.1265 27.7944 25.6389 27.3833 26.05C26.9722 26.4612 26.4598 26.6667 25.8462 26.6667H6.15383ZM6.15383 25.3334H25.8462C26.0513 25.3334 26.2393 25.2479 26.4103 25.077C26.5812 24.906 26.6667 24.718 26.6667 24.5129V11.4872C26.6667 11.2821 26.5812 11.0941 26.4103 10.9231C26.2393 10.7522 26.0513 10.6667 25.8462 10.6667H6.15383C5.94872 10.6667 5.76069 10.7522 5.58973 10.9231C5.4188 11.0941 5.33333 11.2821 5.33333 11.4872V24.5129C5.33333 24.718 5.4188 24.906 5.58973 25.077C5.76069 25.2479 5.94872 25.3334 6.15383 25.3334ZM13.3333 9.33337H18.6667V7.48721C18.6667 7.28207 18.5812 7.09404 18.4103 6.92311C18.2393 6.75217 18.0513 6.66671 17.8462 6.66671H14.1538C13.9487 6.66671 13.7607 6.75217 13.5897 6.92311C13.4188 7.09404 13.3333 7.28207 13.3333 7.48721V9.33337Z" fill="#CBE6CC"/>
</g>
</svg>
