<svg width="24" height="24" viewBox="0 0 24 24" fill="none" xmlns="http://www.w3.org/2000/svg">
<mask id="mask0_250_24505" style="mask-type:alpha" maskUnits="userSpaceOnUse" x="0" y="0" width="24" height="24">
<rect width="24" height="24" fill="#D9D9D9"/>
</mask>
<g mask="url(#mask0_250_24505)">
<path d="M11.9808 19.0942C11.7859 19.0942 11.5933 19.0589 11.4029 18.9884C11.2125 18.9179 11.0449 18.8102 10.9 18.6653L9.75192 17.6288C7.97242 16.0121 6.40223 14.44 5.04135 12.9124C3.68045 11.3848 3 9.79734 3 8.1499C3 6.8781 3.43205 5.81015 4.29615 4.94605C5.16025 4.08195 6.2282 3.6499 7.5 3.6499C8.22948 3.6499 8.9891 3.83419 9.77885 4.20278C10.5686 4.57138 11.309 5.26657 12 6.28835C12.691 5.26657 13.4314 4.57138 14.2212 4.20278C15.0109 3.83419 15.7705 3.6499 16.5 3.6499C17.7718 3.6499 18.8398 4.08195 19.7038 4.94605C20.5679 5.81015 21 6.8781 21 8.1499C21 9.8358 20.2917 11.4563 18.875 13.0115C17.4583 14.5666 15.9077 16.1076 14.2231 17.6345L13.0808 18.6653C12.9359 18.8102 12.7651 18.9179 12.5683 18.9884C12.3715 19.0589 12.1756 19.0942 11.9808 19.0942ZM11.5115 7.32683C10.9128 6.36144 10.2904 5.67394 9.64423 5.26433C8.99808 4.85471 8.28333 4.6499 7.5 4.6499C6.5 4.6499 5.66667 4.98324 5 5.6499C4.33333 6.31657 4 7.1499 4 8.1499C4 8.88837 4.20897 9.64574 4.62692 10.422C5.04487 11.1983 5.60609 11.9935 6.31058 12.8076C7.01508 13.6217 7.82469 14.4544 8.73943 15.3057C9.65418 16.157 10.6064 17.0332 11.5962 17.9345C11.7115 18.0371 11.8462 18.0884 12 18.0884C12.1538 18.0884 12.2885 18.0371 12.4038 17.9345C13.3936 17.0332 14.3458 16.157 15.2606 15.3057C16.1753 14.4544 16.9849 13.6217 17.6894 12.8076C18.3939 11.9935 18.9551 11.1983 19.3731 10.422C19.791 9.64574 20 8.88837 20 8.1499C20 7.1499 19.6667 6.31657 19 5.6499C18.3333 4.98324 17.5 4.6499 16.5 4.6499C15.7167 4.6499 15.0019 4.85471 14.3558 5.26433C13.7096 5.67394 13.0872 6.36144 12.4885 7.32683C12.4359 7.41656 12.3648 7.48387 12.275 7.52875C12.1853 7.57362 12.0936 7.59605 12 7.59605C11.9064 7.59605 11.8148 7.57362 11.725 7.52875C11.6353 7.48387 11.5641 7.41656 11.5115 7.32683Z" fill="#606060"/>
</g>
</svg>
