<svg width="34" height="34" viewBox="0 0 34 34" fill="none" xmlns="http://www.w3.org/2000/svg">
<g clip-path="url(#clip0_413_414)">
<path d="M26.8573 26.8577H22.7086V20.3605C22.7086 18.8112 22.6809 16.8168 20.5509 16.8168C18.39 16.8168 18.0594 18.5048 18.0594 20.2477V26.8573H13.9108V13.4965H17.8935V15.3224H17.9493C18.3478 14.6409 18.9238 14.0802 19.6158 13.7001C20.3078 13.3201 21.0899 13.1348 21.8789 13.1641C26.0838 13.1641 26.8591 15.9299 26.8591 19.5282L26.8573 26.8577ZM9.22956 11.6702C7.89989 11.6704 6.82178 10.5927 6.82156 9.26299C6.82134 7.93332 7.89902 6.85521 9.22869 6.85499C10.5584 6.85466 11.6365 7.93244 11.6367 9.26212C11.6368 9.90065 11.3833 10.5131 10.9318 10.9647C10.4804 11.4163 9.8681 11.6701 9.22956 11.6702ZM11.304 26.8578H7.15089V13.4965H11.3039V26.8577L11.304 26.8578ZM28.9256 3.00204H5.0662C3.93855 2.98935 3.01378 3.89268 3 5.02033V28.9793C3.01334 30.1075 3.938 31.0117 5.06609 30.9999H28.9256C30.0561 31.0139 30.9844 30.1096 31 28.9793V5.01848C30.9839 3.88863 30.0555 2.98541 28.9256 3.00018" fill="#0A66C2"/>
</g>
<defs>
<clipPath id="clip0_413_414">
<rect width="28" height="28" fill="white" transform="translate(3 3)"/>
</clipPath>
</defs>
</svg>
