<svg width="24" height="24" viewBox="0 0 24 24" fill="none" xmlns="http://www.w3.org/2000/svg">
<mask id="mask0_250_24474" style="mask-type:alpha" maskUnits="userSpaceOnUse" x="0" y="0" width="24" height="24">
<rect width="24" height="24" fill="#D9D9D9"/>
</mask>
<g mask="url(#mask0_250_24474)">
<path d="M12 10H16.6154V9H12V10ZM12 15H16.6154V14H12V15ZM9 10.7308C9.34487 10.7308 9.63622 10.6119 9.87405 10.374C10.1119 10.1362 10.2308 9.84487 10.2308 9.5C10.2308 9.15512 10.1119 8.86377 9.87405 8.62595C9.63622 8.38813 9.34487 8.26922 9 8.26922C8.65513 8.26922 8.36378 8.38813 8.12595 8.62595C7.88813 8.86377 7.76923 9.15512 7.76923 9.5C7.76923 9.84487 7.88813 10.1362 8.12595 10.374C8.36378 10.6119 8.65513 10.7308 9 10.7308ZM9 15.7308C9.34487 15.7308 9.63622 15.6119 9.87405 15.3741C10.1119 15.1362 10.2308 14.8449 10.2308 14.5C10.2308 14.1551 10.1119 13.8638 9.87405 13.6259C9.63622 13.3881 9.34487 13.2692 9 13.2692C8.65513 13.2692 8.36378 13.3881 8.12595 13.6259C7.88813 13.8638 7.76923 14.1551 7.76923 14.5C7.76923 14.8449 7.88813 15.1362 8.12595 15.3741C8.36378 15.6119 8.65513 15.7308 9 15.7308ZM5.61538 20C5.15513 20 4.77083 19.8458 4.4625 19.5375C4.15417 19.2292 4 18.8449 4 18.3846V5.61537C4 5.15512 4.15417 4.77083 4.4625 4.4625C4.77083 4.15417 5.15513 4 5.61538 4H18.3846C18.8449 4 19.2292 4.15417 19.5375 4.4625C19.8458 4.77083 20 5.15512 20 5.61537V18.3846C20 18.8449 19.8458 19.2292 19.5375 19.5375C19.2292 19.8458 18.8449 20 18.3846 20H5.61538ZM5.61538 19H18.3846C18.5385 19 18.6795 18.9359 18.8077 18.8077C18.9359 18.6795 19 18.5385 19 18.3846V5.61537C19 5.46154 18.9359 5.32052 18.8077 5.1923C18.6795 5.0641 18.5385 5 18.3846 5H5.61538C5.46154 5 5.32052 5.0641 5.1923 5.1923C5.0641 5.32052 5 5.46154 5 5.61537V18.3846C5 18.5385 5.0641 18.6795 5.1923 18.8077C5.32052 18.9359 5.46154 19 5.61538 19Z" fill="#4CA751"/>
</g>
</svg>
