<svg width="198" height="51" viewBox="0 0 198 51" fill="none" xmlns="http://www.w3.org/2000/svg">
<path d="M29.0229 25.9536C30.3793 46.4954 155.564 42.3088 100.5 45.9446C45.4362 49.5803 2.43412 49.865 1.07778 29.3231C-0.278553 8.78129 134.565 4.5747 189.629 0.938954C241.589 -1.23607 27.6666 5.41172 29.0229 25.9536Z" fill="url(#paint0_linear_526_4172)"/>
<path d="M43.72 21.15V23.94H38.17V42H34.75V23.94H29.17V21.15H43.72ZM46.0436 33.66C46.0436 32 46.3836 30.53 47.0636 29.25C47.7636 27.97 48.7036 26.98 49.8836 26.28C51.0836 25.56 52.4036 25.2 53.8436 25.2C55.1436 25.2 56.2736 25.46 57.2336 25.98C58.2136 26.48 58.9936 27.11 59.5736 27.87V25.47H63.0236V42H59.5736V39.54C58.9936 40.32 58.2036 40.97 57.2036 41.49C56.2036 42.01 55.0636 42.27 53.7836 42.27C52.3636 42.27 51.0636 41.91 49.8836 41.19C48.7036 40.45 47.7636 39.43 47.0636 38.13C46.3836 36.81 46.0436 35.32 46.0436 33.66ZM59.5736 33.72C59.5736 32.58 59.3336 31.59 58.8536 30.75C58.3936 29.91 57.7836 29.27 57.0236 28.83C56.2636 28.39 55.4436 28.17 54.5636 28.17C53.6836 28.17 52.8636 28.39 52.1036 28.83C51.3436 29.25 50.7236 29.88 50.2436 30.72C49.7836 31.54 49.5536 32.52 49.5536 33.66C49.5536 34.8 49.7836 35.8 50.2436 36.66C50.7236 37.52 51.3436 38.18 52.1036 38.64C52.8836 39.08 53.7036 39.3 54.5636 39.3C55.4436 39.3 56.2636 39.08 57.0236 38.64C57.7836 38.2 58.3936 37.56 58.8536 36.72C59.3336 35.86 59.5736 34.86 59.5736 33.72ZM70.9356 19.8V42H67.5156V19.8H70.9356ZM90.5758 33.33C90.5758 33.95 90.5358 34.51 90.4558 35.01H77.8258C77.9258 36.33 78.4158 37.39 79.2958 38.19C80.1758 38.99 81.2558 39.39 82.5358 39.39C84.3758 39.39 85.6758 38.62 86.4358 37.08H90.1258C89.6258 38.6 88.7158 39.85 87.3958 40.83C86.0958 41.79 84.4758 42.27 82.5358 42.27C80.9558 42.27 79.5358 41.92 78.2758 41.22C77.0358 40.5 76.0558 39.5 75.3358 38.22C74.6358 36.92 74.2858 35.42 74.2858 33.72C74.2858 32.02 74.6258 30.53 75.3058 29.25C76.0058 27.95 76.9758 26.95 78.2158 26.25C79.4758 25.55 80.9158 25.2 82.5358 25.2C84.0958 25.2 85.4858 25.54 86.7058 26.22C87.9258 26.9 88.8758 27.86 89.5558 29.1C90.2358 30.32 90.5758 31.73 90.5758 33.33ZM87.0058 32.25C86.9858 30.99 86.5358 29.98 85.6558 29.22C84.7758 28.46 83.6858 28.08 82.3858 28.08C81.2058 28.08 80.1958 28.46 79.3558 29.22C78.5158 29.96 78.0158 30.97 77.8558 32.25H87.0058ZM102.281 25.2C103.581 25.2 104.741 25.47 105.761 26.01C106.801 26.55 107.611 27.35 108.191 28.41C108.771 29.47 109.061 30.75 109.061 32.25V42H105.671V32.76C105.671 31.28 105.301 30.15 104.561 29.37C103.821 28.57 102.811 28.17 101.531 28.17C100.251 28.17 99.2314 28.57 98.4714 29.37C97.7314 30.15 97.3614 31.28 97.3614 32.76V42H93.9414V25.47H97.3614V27.36C97.9214 26.68 98.6314 26.15 99.4914 25.77C100.371 25.39 101.301 25.2 102.281 25.2ZM117.414 28.26V37.41C117.414 38.03 117.554 38.48 117.834 38.76C118.134 39.02 118.634 39.15 119.334 39.15H121.434V42H118.734C117.194 42 116.014 41.64 115.194 40.92C114.374 40.2 113.964 39.03 113.964 37.41V28.26H112.014V25.47H113.964V21.36H117.414V25.47H121.434V28.26H117.414ZM141.236 21.15V42H137.816V32.88H128.006V42H124.586V21.15H128.006V30.09H137.816V21.15H141.236ZM160.708 25.47V42H157.288V40.05C156.748 40.73 156.038 41.27 155.158 41.67C154.298 42.05 153.378 42.24 152.398 42.24C151.098 42.24 149.928 41.97 148.888 41.43C147.868 40.89 147.058 40.09 146.458 39.03C145.878 37.97 145.588 36.69 145.588 35.19V25.47H148.978V34.68C148.978 36.16 149.348 37.3 150.088 38.1C150.828 38.88 151.838 39.27 153.118 39.27C154.398 39.27 155.408 38.88 156.148 38.1C156.908 37.3 157.288 36.16 157.288 34.68V25.47H160.708ZM168.641 27.93C169.221 27.13 170.011 26.48 171.011 25.98C172.031 25.46 173.161 25.2 174.401 25.2C175.861 25.2 177.181 25.55 178.361 26.25C179.541 26.95 180.471 27.95 181.151 29.25C181.831 30.53 182.171 32 182.171 33.66C182.171 35.32 181.831 36.81 181.151 38.13C180.471 39.43 179.531 40.45 178.331 41.19C177.151 41.91 175.841 42.27 174.401 42.27C173.121 42.27 171.981 42.02 170.981 41.52C170.001 41.02 169.221 40.38 168.641 39.6V42H165.221V19.8H168.641V27.93ZM178.691 33.66C178.691 32.52 178.451 31.54 177.971 30.72C177.511 29.88 176.891 29.25 176.111 28.83C175.351 28.39 174.531 28.17 173.651 28.17C172.791 28.17 171.971 28.39 171.191 28.83C170.431 29.27 169.811 29.91 169.331 30.75C168.871 31.59 168.641 32.58 168.641 33.72C168.641 34.86 168.871 35.86 169.331 36.72C169.811 37.56 170.431 38.2 171.191 38.64C171.971 39.08 172.791 39.3 173.651 39.3C174.531 39.3 175.351 39.08 176.111 38.64C176.891 38.18 177.511 37.52 177.971 36.66C178.451 35.8 178.691 34.8 178.691 33.66Z" fill="white"/>
<defs>
<linearGradient id="paint0_linear_526_4172" x1="11.523" y1="38.575" x2="120.023" y2="2.57499" gradientUnits="userSpaceOnUse">
<stop stop-color="#CDCDCD"/>
<stop offset="1" stop-color="#4CA751" stop-opacity="0"/>
</linearGradient>
</defs>
</svg>
