<svg width="25" height="24" viewBox="0 0 25 24" fill="none" xmlns="http://www.w3.org/2000/svg">
<mask id="mask0_339_19394" style="mask-type:alpha" maskUnits="userSpaceOnUse" x="0" y="0" width="25" height="24">
<rect x="0.0644531" width="24" height="24" fill="#D9D9D9"/>
</mask>
<g mask="url(#mask0_339_19394)">
<path d="M4.02649 18.7614C3.53444 18.7614 3.11795 18.591 2.77702 18.2501C2.43609 17.9091 2.26562 17.4926 2.26562 17.0006V5.91101C2.26562 5.41896 2.43609 5.00248 2.77702 4.66154C3.11795 4.32061 3.53444 4.15015 4.02649 4.15015H19.0124C19.5045 4.15015 19.921 4.32061 20.2619 4.66154C20.6028 5.00248 20.7733 5.41896 20.7733 5.91101V17.0006C20.7733 17.4926 20.6028 17.9091 20.2619 18.2501C19.921 18.591 19.5045 18.7614 19.0124 18.7614H4.02649ZM11.5195 11.999L3.72674 7.01616V17.0006C3.72674 17.088 3.75484 17.1598 3.81104 17.216C3.86725 17.2722 3.93906 17.3003 4.02649 17.3003H19.0124C19.0999 17.3003 19.1717 17.2722 19.2279 17.216C19.2841 17.1598 19.3122 17.088 19.3122 17.0006V7.01616L11.5195 11.999ZM11.5195 10.4817L19.1623 5.61126H3.8766L11.5195 10.4817ZM3.72674 7.01616V5.61126V17.0006C3.72674 17.088 3.75484 17.1598 3.81104 17.216C3.86725 17.2722 3.93906 17.3003 4.02649 17.3003H3.72674V7.01616Z" fill="#4CA751"/>
</g>
</svg>
