<svg width="16" height="16" viewBox="0 0 16 16" fill="none" xmlns="http://www.w3.org/2000/svg">
<mask id="mask0_250_24661" style="mask-type:alpha" maskUnits="userSpaceOnUse" x="0" y="0" width="16" height="16">
<rect width="16" height="16" fill="#D9D9D9"/>
</mask>
<g mask="url(#mask0_250_24661)">
<path d="M7.99935 7.99992C8.36602 7.99992 8.68002 7.86925 8.94135 7.60792C9.20224 7.34703 9.33268 7.03325 9.33268 6.66659C9.33268 6.29992 9.20224 5.98592 8.94135 5.72459C8.68002 5.4637 8.36602 5.33325 7.99935 5.33325C7.63268 5.33325 7.3189 5.4637 7.05802 5.72459C6.79668 5.98592 6.66602 6.29992 6.66602 6.66659C6.66602 7.03325 6.79668 7.34703 7.05802 7.60792C7.3189 7.86925 7.63268 7.99992 7.99935 7.99992ZM7.99935 12.8999C9.3549 11.6555 10.3605 10.5248 11.016 9.50792C11.6716 8.49147 11.9993 7.58881 11.9993 6.79992C11.9993 5.58881 11.6131 4.59703 10.8407 3.82459C10.0687 3.05259 9.12157 2.66659 7.99935 2.66659C6.87713 2.66659 5.92979 3.05259 5.15735 3.82459C4.38535 4.59703 3.99935 5.58881 3.99935 6.79992C3.99935 7.58881 4.32713 8.49147 4.98268 9.50792C5.63824 10.5248 6.64379 11.6555 7.99935 12.8999ZM7.99935 14.6666C6.21046 13.1444 4.87446 11.7304 3.99135 10.4246C3.10779 9.11925 2.66602 7.91103 2.66602 6.79992C2.66602 5.13325 3.20224 3.80547 4.27468 2.81659C5.34668 1.8277 6.58824 1.33325 7.99935 1.33325C9.41046 1.33325 10.652 1.8277 11.724 2.81659C12.7965 3.80547 13.3327 5.13325 13.3327 6.79992C13.3327 7.91103 12.8911 9.11925 12.008 10.4246C11.1245 11.7304 9.78824 13.1444 7.99935 14.6666Z" fill="#606060"/>
</g>
</svg>
