<svg width="32" height="32" viewBox="0 0 32 32" fill="none" xmlns="http://www.w3.org/2000/svg">
<mask id="mask0_301_20229" style="mask-type:alpha" maskUnits="userSpaceOnUse" x="0" y="0" width="32" height="32">
<rect width="32" height="32" fill="#D9D9D9"/>
</mask>
<g mask="url(#mask0_301_20229)">
<path d="M16.0006 17.9999C15.069 17.9999 14.2806 17.6772 13.6353 17.0319C12.99 16.3866 12.6673 15.5982 12.6673 14.6666V6.66655C12.6673 5.73495 12.99 4.9465 13.6353 4.30119C14.2806 3.6559 15.069 3.33325 16.0006 3.33325C16.9322 3.33325 17.7207 3.6559 18.366 4.30119C19.0113 4.9465 19.3339 5.73495 19.3339 6.66655V14.6666C19.3339 15.5982 19.0113 16.3866 18.366 17.0319C17.7207 17.6772 16.9322 17.9999 16.0006 17.9999ZM15.0007 27.6665V23.2716C12.8007 23.0204 10.9729 22.0768 9.51732 20.4409C8.06176 18.805 7.33398 16.8802 7.33398 14.6666H9.33395C9.33395 16.511 9.98395 18.0832 11.284 19.3832C12.584 20.6832 14.1562 21.3332 16.0006 21.3332C17.8451 21.3332 19.4173 20.6832 20.7173 19.3832C22.0173 18.0832 22.6673 16.511 22.6673 14.6666H24.6673C24.6673 16.8802 23.9395 18.805 22.4839 20.4409C21.0284 22.0768 19.2006 23.0204 17.0006 23.2716V27.6665H15.0007ZM16.0006 15.9999C16.3784 15.9999 16.6951 15.8721 16.9506 15.6166C17.2062 15.361 17.334 15.0443 17.334 14.6666V6.66655C17.334 6.28878 17.2062 5.97211 16.9506 5.71655C16.6951 5.461 16.3784 5.33322 16.0006 5.33322C15.6228 5.33322 15.3062 5.461 15.0506 5.71655C14.7951 5.97211 14.6673 6.28878 14.6673 6.66655V14.6666C14.6673 15.0443 14.7951 15.361 15.0506 15.6166C15.3062 15.8721 15.6228 15.9999 16.0006 15.9999Z" fill="#4CA751"/>
</g>
</svg>
