<svg width="22" height="22" viewBox="0 0 22 22" fill="none" xmlns="http://www.w3.org/2000/svg">
<g clip-path="url(#clip0_273_28241)">
<path d="M10.9998 1.63672C12.6388 1.63672 14.2106 2.28779 15.3695 3.44669C16.5284 4.6056 17.1795 6.17742 17.1795 7.81636C17.1795 14.6874 19.6859 16.0415 20.3629 16.0415H1.63672C2.32815 16.0415 4.82017 14.673 4.82017 7.81636C4.82017 6.17742 5.47124 4.6056 6.63015 3.44669C7.78905 2.28779 9.36087 1.63672 10.9998 1.63672V1.63672Z" stroke="#888888" stroke-width="1.57" stroke-linecap="round" stroke-linejoin="round"/>
<path d="M8.83887 18.6775C8.96338 19.1558 9.24307 19.5792 9.63409 19.8815C10.0251 20.1837 10.5054 20.3477 10.9996 20.3477C11.4938 20.3477 11.9741 20.1837 12.3651 19.8815C12.7561 19.5792 13.0358 19.1558 13.1603 18.6775" stroke="#888888" stroke-width="1.57" stroke-linecap="round" stroke-linejoin="round"/>
</g>
<defs>
<clipPath id="clip0_273_28241">
<rect width="22" height="22" fill="white"/>
</clipPath>
</defs>
</svg>
