<svg width="25" height="25" viewBox="0 0 25 25" fill="none" xmlns="http://www.w3.org/2000/svg">
<mask id="mask0_172_4520" style="mask-type:alpha" maskUnits="userSpaceOnUse" x="0" y="0" width="25" height="25">
<rect x="0.208984" y="0.799561" width="24" height="24" fill="#D9D9D9"/>
</mask>
<g mask="url(#mask0_172_4520)">
<path d="M5.20898 19.7996H6.30706L17.0051 9.10149L15.9071 8.00341L5.20898 18.7015V19.7996ZM4.20898 20.7996V18.2803L17.3898 5.08609C17.4922 4.99474 17.6053 4.92414 17.7291 4.87431C17.8529 4.82448 17.9819 4.79956 18.1162 4.79956C18.2506 4.79956 18.3807 4.82071 18.5066 4.86301C18.6326 4.90533 18.7487 4.98161 18.8551 5.09186L19.9225 6.16494C20.0327 6.27135 20.108 6.38809 20.1484 6.51514C20.1888 6.64219 20.209 6.76924 20.209 6.89629C20.209 7.0318 20.1861 7.16145 20.1405 7.28524C20.0948 7.40902 20.0221 7.52213 19.9225 7.62456L6.72821 20.7996H4.20898ZM16.4465 8.56208L15.9071 8.00341L17.0051 9.10149L16.4465 8.56208Z" fill="#1C1B1F"/>
</g>
</svg>
