<svg width="32" height="32" viewBox="0 0 32 32" fill="none" xmlns="http://www.w3.org/2000/svg">
<mask id="mask0_80_5293" style="mask-type:alpha" maskUnits="userSpaceOnUse" x="0" y="0" width="32" height="32">
<rect width="32" height="32" fill="#D9D9D9"/>
</mask>
<g mask="url(#mask0_80_5293)">
<path d="M15.333 26.2846V16.382L6.66634 11.3641V20.8051C6.66634 20.9419 6.70053 21.0701 6.76891 21.1897C6.83729 21.3094 6.93985 21.4119 7.07661 21.4974L15.333 26.2846ZM16.6663 26.2846L24.9227 21.4974C25.0595 21.4119 25.1621 21.3094 25.2304 21.1897C25.2988 21.0701 25.333 20.9419 25.333 20.8051V11.3641L16.6663 16.382V26.2846ZM15.9997 15.2359L24.5663 10.2846L16.4099 5.56407C16.2732 5.47861 16.1364 5.43587 15.9997 5.43587C15.8629 5.43587 15.7262 5.47861 15.5894 5.56407L7.43301 10.2846L15.9997 15.2359ZM6.40991 22.6769C6.07317 22.4838 5.80951 22.2213 5.61891 21.8897C5.42831 21.5581 5.33301 21.1991 5.33301 20.8128V11.1871C5.33301 10.8008 5.42831 10.4419 5.61891 10.1102C5.80951 9.7786 6.07317 9.5162 6.40991 9.32304L14.9227 4.41791C15.2595 4.22475 15.6185 4.12817 15.9997 4.12817C16.3809 4.12817 16.7399 4.22475 17.0766 4.41791L25.5894 9.32304C25.9262 9.5162 26.1898 9.7786 26.3804 10.1102C26.571 10.4419 26.6663 10.8008 26.6663 11.1871V20.8128C26.6663 21.1991 26.571 21.5581 26.3804 21.8897C26.1898 22.2213 25.9262 22.4838 25.5894 22.6769L17.0766 27.582C16.7399 27.7752 16.3809 27.8718 15.9997 27.8718C15.6185 27.8718 15.2595 27.7752 14.9227 27.582L6.40991 22.6769Z" fill="#CBE6CC"/>
</g>
</svg>
