<svg width="32" height="32" viewBox="0 0 32 32" fill="none" xmlns="http://www.w3.org/2000/svg">
<g clip-path="url(#clip0_428_417)">
<path d="M15.8877 2.50781C9.02309 2.50781 9.4517 5.48469 9.4517 5.48469L9.45933 8.56884H16.0101V9.49478H6.85748C6.85748 9.49478 2.46484 8.9966 2.46484 15.9229C2.46484 22.8494 6.29884 22.6038 6.29884 22.6038H8.58696V19.3896C8.58696 19.3896 8.46361 15.5556 12.3598 15.5556H18.8569C18.8569 15.5556 22.5072 15.6146 22.5072 12.0277V6.09701C22.5072 6.09701 23.0616 2.50781 15.8877 2.50781ZM12.2756 4.58184C12.4304 4.5817 12.5837 4.61208 12.7267 4.67126C12.8698 4.73043 12.9997 4.81723 13.1092 4.92669C13.2187 5.03615 13.3055 5.16612 13.3646 5.30916C13.4238 5.4522 13.4542 5.60551 13.4541 5.76031C13.4542 5.9151 13.4238 6.06841 13.3646 6.21145C13.3055 6.35449 13.2187 6.48446 13.1092 6.59392C12.9997 6.70338 12.8698 6.79018 12.7267 6.84936C12.5837 6.90853 12.4304 6.93892 12.2756 6.93878C12.1208 6.93892 11.9675 6.90853 11.8244 6.84936C11.6814 6.79018 11.5514 6.70338 11.442 6.59392C11.3325 6.48446 11.2457 6.35449 11.1865 6.21145C11.1274 6.06841 11.097 5.9151 11.0971 5.76031C11.097 5.60551 11.1274 5.4522 11.1865 5.30916C11.2457 5.16612 11.3325 5.03615 11.442 4.92669C11.5514 4.81723 11.6814 4.73043 11.8244 4.67126C11.9675 4.61208 12.1208 4.5817 12.2756 4.58184Z" fill="url(#paint0_linear_428_417)"/>
<path d="M16.0837 29.4076C22.9483 29.4076 22.5196 26.4307 22.5196 26.4307L22.512 23.3466H15.9612V22.4207H25.1138C25.1138 22.4207 29.5064 22.9189 29.5064 15.9924C29.5064 9.06598 25.6724 9.31162 25.6724 9.31162H23.3843V12.5257C23.3843 12.5257 23.5076 16.3597 19.6115 16.3597H13.1143C13.1143 16.3597 9.46403 16.3007 9.46403 19.8877V25.8185C9.46403 25.8185 8.90974 29.4076 16.0836 29.4076M19.6957 27.3338C19.5409 27.3339 19.3876 27.3035 19.2445 27.2443C19.1015 27.1852 18.9715 27.0984 18.862 26.9889C18.7526 26.8794 18.6658 26.7495 18.6066 26.6064C18.5474 26.4634 18.517 26.3101 18.5172 26.1553C18.517 26.0005 18.5474 25.8472 18.6066 25.7041C18.6657 25.561 18.7525 25.4311 18.862 25.3216C18.9715 25.2121 19.1014 25.1253 19.2445 25.0661C19.3875 25.007 19.5408 24.9766 19.6957 24.9767C19.8505 24.9766 20.0038 25.007 20.1468 25.0661C20.2898 25.1253 20.4198 25.2121 20.5293 25.3216C20.6387 25.431 20.7255 25.561 20.7847 25.704C20.8439 25.8471 20.8743 26.0004 20.8741 26.1552C20.8743 26.31 20.8439 26.4633 20.7847 26.6063C20.7255 26.7494 20.6387 26.8793 20.5293 26.9888C20.4198 27.0982 20.2898 27.185 20.1468 27.2442C20.0038 27.3034 19.8505 27.3339 19.6957 27.3338Z" fill="url(#paint1_linear_428_417)"/>
</g>
<defs>
<linearGradient id="paint0_linear_428_417" x1="262.323" y1="244.456" x2="1602.37" y2="1571.13" gradientUnits="userSpaceOnUse">
<stop stop-color="#387EB8"/>
<stop offset="1" stop-color="#366994"/>
</linearGradient>
<linearGradient id="paint1_linear_428_417" x1="393.014" y1="422.887" x2="1832.07" y2="1783.27" gradientUnits="userSpaceOnUse">
<stop stop-color="#FFE052"/>
<stop offset="1" stop-color="#FFC331"/>
</linearGradient>
<clipPath id="clip0_428_417">
<rect width="27.1059" height="27" fill="white" transform="translate(2.4502 2.5)"/>
</clipPath>
</defs>
</svg>
