<svg width="32" height="32" viewBox="0 0 32 32" fill="none" xmlns="http://www.w3.org/2000/svg">
<mask id="mask0_895_3654" style="mask-type:alpha" maskUnits="userSpaceOnUse" x="0" y="0" width="33" height="33">
<rect x="0.250488" y="0.40332" width="32" height="32" fill="#D9D9D9"/>
</mask>
<g mask="url(#mask0_895_3654)">
<path d="M10.2502 22.403H18.2502V21.0697H10.2502V22.403ZM10.2502 17.0697H22.2502V15.7363H10.2502V17.0697ZM10.2502 11.7363H22.2502V10.403H10.2502V11.7363ZM7.73733 27.0697C7.12366 27.0697 6.61127 26.8641 6.20016 26.453C5.78905 26.0419 5.5835 25.5295 5.5835 24.9158V7.89016C5.5835 7.27649 5.78905 6.76411 6.20016 6.35299C6.61127 5.94188 7.12366 5.73633 7.73733 5.73633H24.763C25.3767 5.73633 25.8891 5.94188 26.3002 6.35299C26.7113 6.76411 26.9168 7.27649 26.9168 7.89016V24.9158C26.9168 25.5295 26.7113 26.0419 26.3002 26.453C25.8891 26.8641 25.3767 27.0697 24.763 27.0697H7.73733ZM7.73733 25.7363H24.763C24.9681 25.7363 25.1561 25.6509 25.3271 25.4799C25.498 25.309 25.5835 25.1209 25.5835 24.9158V7.89016C25.5835 7.68505 25.498 7.49702 25.3271 7.32606C25.1561 7.15513 24.9681 7.06966 24.763 7.06966H7.73733C7.53222 7.06966 7.34419 7.15513 7.17323 7.32606C7.0023 7.49702 6.91683 7.68505 6.91683 7.89016V24.9158C6.91683 25.1209 7.0023 25.309 7.17323 25.4799C7.34419 25.6509 7.53222 25.7363 7.73733 25.7363Z" fill="#CBE6CC"/>
</g>
</svg>
