<svg width="33" height="33" viewBox="0 0 33 33" fill="none" xmlns="http://www.w3.org/2000/svg">
<g clip-path="url(#clip0_428_405)">
<mask id="mask0_428_405" style="mask-type:alpha" maskUnits="userSpaceOnUse" x="0" y="0" width="33" height="33">
<path d="M32.7505 0.90332H0.750488V32.9033H32.7505V0.90332Z" fill="#D9D9D9"/>
</mask>
<g mask="url(#mask0_428_405)">
<path d="M10.7502 22.903H18.7502V21.5697H10.7502V22.903ZM10.7502 17.5697H22.7502V16.2363H10.7502V17.5697ZM10.7502 12.2363H22.7502V10.903H10.7502V12.2363ZM8.23733 27.5697C7.62366 27.5697 7.11127 27.3641 6.70016 26.953C6.28905 26.5419 6.0835 26.0295 6.0835 25.4158V8.39016C6.0835 7.77649 6.28905 7.26411 6.70016 6.85299C7.11127 6.44188 7.62366 6.23633 8.23733 6.23633H25.263C25.8767 6.23633 26.3891 6.44188 26.8002 6.85299C27.2113 7.26411 27.4168 7.77649 27.4168 8.39016V25.4158C27.4168 26.0295 27.2113 26.5419 26.8002 26.953C26.3891 27.3641 25.8767 27.5697 25.263 27.5697H8.23733ZM8.23733 26.2363H25.263C25.4681 26.2363 25.6561 26.1509 25.8271 25.9799C25.998 25.809 26.0835 25.6209 26.0835 25.4158V8.39016C26.0835 8.18505 25.998 7.99702 25.8271 7.82606C25.6561 7.65513 25.4681 7.56966 25.263 7.56966H8.23733C8.03222 7.56966 7.84419 7.65513 7.67323 7.82606C7.5023 7.99702 7.41683 8.18505 7.41683 8.39016V25.4158C7.41683 25.6209 7.5023 25.809 7.67323 25.9799C7.84419 26.1509 8.03222 26.2363 8.23733 26.2363Z" fill="white"/>
</g>
</g>
<defs>
<clipPath id="clip0_428_405">
<rect width="32" height="32" fill="white" transform="translate(0.5 0.5)"/>
</clipPath>
</defs>
</svg>
