<svg width="24" height="24" viewBox="0 0 24 24" fill="none" xmlns="http://www.w3.org/2000/svg">
<g clip-path="url(#clip0_414_433)">
<mask id="mask0_414_433" style="mask-type:alpha" maskUnits="userSpaceOnUse" x="0" y="0" width="24" height="24">
<path d="M24 0H0V24H24V0Z" fill="#D9D9D9"/>
</mask>
<g mask="url(#mask0_414_433)">
<path d="M12 17.573L8.26152 19.1807C7.72307 19.4127 7.21154 19.3682 6.72692 19.047C6.24231 18.7259 6 18.2775 6 17.7018V6.26527C6 5.80502 6.15417 5.42073 6.4625 5.1124C6.77083 4.80407 7.15512 4.6499 7.61537 4.6499H16.3846C16.8449 4.6499 17.2292 4.80407 17.5375 5.1124C17.8458 5.42073 18 5.80502 18 6.26527V17.7018C18 18.2775 17.7577 18.7259 17.2731 19.047C16.7885 19.3682 16.2769 19.4127 15.7385 19.1807L12 17.573ZM12 16.4499L16.1346 18.2345C16.3397 18.3243 16.5353 18.305 16.7212 18.1768C16.9071 18.0486 17 17.8755 17 17.6576V6.26527C17 6.11144 16.9359 5.97042 16.8077 5.8422C16.6795 5.714 16.5385 5.6499 16.3846 5.6499H7.61537C7.46154 5.6499 7.32052 5.714 7.1923 5.8422C7.0641 5.97042 7 6.11144 7 6.26527V17.6576C7 17.8755 7.09295 18.0486 7.27885 18.1768C7.46475 18.305 7.66026 18.3243 7.86537 18.2345L12 16.4499Z" fill="#606060"/>
</g>
</g>
<defs>
<clipPath id="clip0_414_433">
<rect width="24" height="24" fill="white"/>
</clipPath>
</defs>
</svg>
