<svg width="32" height="32" viewBox="0 0 32 32" fill="none" xmlns="http://www.w3.org/2000/svg">
<mask id="mask0_895_3667" style="mask-type:alpha" maskUnits="userSpaceOnUse" x="0" y="0" width="32" height="32">
<rect width="32" height="32" fill="#D9D9D9"/>
</mask>
<g mask="url(#mask0_895_3667)">
<path d="M7.48733 28.0001C6.87366 28.0001 6.36127 27.7945 5.95016 27.3834C5.53905 26.9723 5.3335 26.4599 5.3335 25.8463V8.82058C5.3335 8.20692 5.53905 7.69453 5.95016 7.28342C6.36127 6.87231 6.87366 6.66675 7.48733 6.66675H9.8463V3.69238H11.2822V6.66675H20.8207V3.69238H22.154V6.66675H24.513C25.1267 6.66675 25.6391 6.87231 26.0502 7.28342C26.4613 7.69453 26.6668 8.20692 26.6668 8.82058V25.8463C26.6668 26.4599 26.4613 26.9723 26.0502 27.3834C25.6391 27.7945 25.1267 28.0001 24.513 28.0001H7.48733ZM7.48733 26.6668H24.513C24.7181 26.6668 24.9061 26.5813 25.0771 26.4104C25.248 26.2394 25.3335 26.0514 25.3335 25.8463V14.1539H6.66683V25.8463C6.66683 26.0514 6.7523 26.2394 6.92323 26.4104C7.09418 26.5813 7.28222 26.6668 7.48733 26.6668ZM6.66683 12.8206H25.3335V8.82058C25.3335 8.61547 25.248 8.42744 25.0771 8.25648C24.9061 8.08555 24.7181 8.00008 24.513 8.00008H7.48733C7.28222 8.00008 7.09418 8.08555 6.92323 8.25648C6.7523 8.42744 6.66683 8.61547 6.66683 8.82058V12.8206ZM16.0002 18.8719C15.7249 18.8719 15.4852 18.7697 15.2809 18.5655C15.0767 18.3612 14.9745 18.1215 14.9745 17.8463C14.9745 17.571 15.0767 17.3313 15.2809 17.127C15.4852 16.9227 15.7249 16.8206 16.0002 16.8206C16.2754 16.8206 16.5151 16.9227 16.7194 17.127C16.9237 17.3313 17.0258 17.571 17.0258 17.8463C17.0258 18.1215 16.9237 18.3612 16.7194 18.5655C16.5151 18.7697 16.2754 18.8719 16.0002 18.8719ZM10.6668 18.8719C10.3916 18.8719 10.1519 18.7697 9.9476 18.5655C9.74333 18.3612 9.6412 18.1215 9.6412 17.8463C9.6412 17.571 9.74333 17.3313 9.9476 17.127C10.1519 16.9227 10.3916 16.8206 10.6668 16.8206C10.9421 16.8206 11.1818 16.9227 11.3861 17.127C11.5903 17.3313 11.6925 17.571 11.6925 17.8463C11.6925 18.1215 11.5903 18.3612 11.3861 18.5655C11.1818 18.7697 10.9421 18.8719 10.6668 18.8719ZM21.3335 18.8719C21.0583 18.8719 20.8185 18.7697 20.6143 18.5655C20.41 18.3612 20.3079 18.1215 20.3079 17.8463C20.3079 17.571 20.41 17.3313 20.6143 17.127C20.8185 16.9227 21.0583 16.8206 21.3335 16.8206C21.6087 16.8206 21.8485 16.9227 22.0527 17.127C22.257 17.3313 22.3591 17.571 22.3591 17.8463C22.3591 18.1215 22.257 18.3612 22.0527 18.5655C21.8485 18.7697 21.6087 18.8719 21.3335 18.8719ZM16.0002 24.0001C15.7249 24.0001 15.4852 23.898 15.2809 23.6937C15.0767 23.4894 14.9745 23.2497 14.9745 22.9745C14.9745 22.6992 15.0767 22.4595 15.2809 22.2552C15.4852 22.0509 15.7249 21.9488 16.0002 21.9488C16.2754 21.9488 16.5151 22.0509 16.7194 22.2552C16.9237 22.4595 17.0258 22.6992 17.0258 22.9745C17.0258 23.2497 16.9237 23.4894 16.7194 23.6937C16.5151 23.898 16.2754 24.0001 16.0002 24.0001ZM10.6668 24.0001C10.3916 24.0001 10.1519 23.898 9.9476 23.6937C9.74333 23.4894 9.6412 23.2497 9.6412 22.9745C9.6412 22.6992 9.74333 22.4595 9.9476 22.2552C10.1519 22.0509 10.3916 21.9488 10.6668 21.9488C10.9421 21.9488 11.1818 22.0509 11.3861 22.2552C11.5903 22.4595 11.6925 22.6992 11.6925 22.9745C11.6925 23.2497 11.5903 23.4894 11.3861 23.6937C11.1818 23.898 10.9421 24.0001 10.6668 24.0001ZM21.3335 24.0001C21.0583 24.0001 20.8185 23.898 20.6143 23.6937C20.41 23.4894 20.3079 23.2497 20.3079 22.9745C20.3079 22.6992 20.41 22.4595 20.6143 22.2552C20.8185 22.0509 21.0583 21.9488 21.3335 21.9488C21.6087 21.9488 21.8485 22.0509 22.0527 22.2552C22.257 22.4595 22.3591 22.6992 22.3591 22.9745C22.3591 23.2497 22.257 23.4894 22.0527 23.6937C21.8485 23.898 21.6087 24.0001 21.3335 24.0001Z" fill="#CBE6CC"/>
</g>
</svg>
