<svg width="33" height="33" viewBox="0 0 33 33" fill="none" xmlns="http://www.w3.org/2000/svg">
<g clip-path="url(#clip0_428_411)">
<mask id="mask0_428_411" style="mask-type:alpha" maskUnits="userSpaceOnUse" x="0" y="0" width="33" height="33">
<path d="M32.5 0.5H0.5V32.5H32.5V0.5Z" fill="#D9D9D9"/>
</mask>
<g mask="url(#mask0_428_411)">
<path d="M7.98733 28.5001C7.37366 28.5001 6.86127 28.2945 6.45016 27.8834C6.03905 27.4723 5.8335 26.9599 5.8335 26.3463V9.32058C5.8335 8.70692 6.03905 8.19453 6.45016 7.78342C6.86127 7.37231 7.37366 7.16675 7.98733 7.16675H10.3463V4.19238H11.7822V7.16675H21.3207V4.19238H22.654V7.16675H25.013C25.6267 7.16675 26.1391 7.37231 26.5502 7.78342C26.9613 8.19453 27.1668 8.70692 27.1668 9.32058V26.3463C27.1668 26.9599 26.9613 27.4723 26.5502 27.8834C26.1391 28.2945 25.6267 28.5001 25.013 28.5001H7.98733ZM7.98733 27.1668H25.013C25.2181 27.1668 25.4061 27.0813 25.5771 26.9104C25.748 26.7394 25.8335 26.5514 25.8335 26.3463V14.6539H7.16683V26.3463C7.16683 26.5514 7.2523 26.7394 7.42323 26.9104C7.59418 27.0813 7.78222 27.1668 7.98733 27.1668ZM7.16683 13.3206H25.8335V9.32058C25.8335 9.11547 25.748 8.92744 25.5771 8.75648C25.4061 8.58555 25.2181 8.50008 25.013 8.50008H7.98733C7.78222 8.50008 7.59418 8.58555 7.42323 8.75648C7.2523 8.92744 7.16683 9.11547 7.16683 9.32058V13.3206ZM16.5002 19.3719C16.2249 19.3719 15.9852 19.2697 15.7809 19.0655C15.5767 18.8612 15.4745 18.6215 15.4745 18.3463C15.4745 18.071 15.5767 17.8313 15.7809 17.627C15.9852 17.4227 16.2249 17.3206 16.5002 17.3206C16.7754 17.3206 17.0151 17.4227 17.2194 17.627C17.4237 17.8313 17.5258 18.071 17.5258 18.3463C17.5258 18.6215 17.4237 18.8612 17.2194 19.0655C17.0151 19.2697 16.7754 19.3719 16.5002 19.3719ZM11.1668 19.3719C10.8916 19.3719 10.6519 19.2697 10.4476 19.0655C10.2433 18.8612 10.1412 18.6215 10.1412 18.3463C10.1412 18.071 10.2433 17.8313 10.4476 17.627C10.6519 17.4227 10.8916 17.3206 11.1668 17.3206C11.4421 17.3206 11.6818 17.4227 11.8861 17.627C12.0903 17.8313 12.1925 18.071 12.1925 18.3463C12.1925 18.6215 12.0903 18.8612 11.8861 19.0655C11.6818 19.2697 11.4421 19.3719 11.1668 19.3719ZM21.8335 19.3719C21.5583 19.3719 21.3185 19.2697 21.1143 19.0655C20.91 18.8612 20.8079 18.6215 20.8079 18.3463C20.8079 18.071 20.91 17.8313 21.1143 17.627C21.3185 17.4227 21.5583 17.3206 21.8335 17.3206C22.1087 17.3206 22.3485 17.4227 22.5527 17.627C22.757 17.8313 22.8591 18.071 22.8591 18.3463C22.8591 18.6215 22.757 18.8612 22.5527 19.0655C22.3485 19.2697 22.1087 19.3719 21.8335 19.3719ZM16.5002 24.5001C16.2249 24.5001 15.9852 24.398 15.7809 24.1937C15.5767 23.9894 15.4745 23.7497 15.4745 23.4745C15.4745 23.1992 15.5767 22.9595 15.7809 22.7552C15.9852 22.5509 16.2249 22.4488 16.5002 22.4488C16.7754 22.4488 17.0151 22.5509 17.2194 22.7552C17.4237 22.9595 17.5258 23.1992 17.5258 23.4745C17.5258 23.7497 17.4237 23.9894 17.2194 24.1937C17.0151 24.398 16.7754 24.5001 16.5002 24.5001ZM11.1668 24.5001C10.8916 24.5001 10.6519 24.398 10.4476 24.1937C10.2433 23.9894 10.1412 23.7497 10.1412 23.4745C10.1412 23.1992 10.2433 22.9595 10.4476 22.7552C10.6519 22.5509 10.8916 22.4488 11.1668 22.4488C11.4421 22.4488 11.6818 22.5509 11.8861 22.7552C12.0903 22.9595 12.1925 23.1992 12.1925 23.4745C12.1925 23.7497 12.0903 23.9894 11.8861 24.1937C11.6818 24.398 11.4421 24.5001 11.1668 24.5001ZM21.8335 24.5001C21.5583 24.5001 21.3185 24.398 21.1143 24.1937C20.91 23.9894 20.8079 23.7497 20.8079 23.4745C20.8079 23.1992 20.91 22.9595 21.1143 22.7552C21.3185 22.5509 21.5583 22.4488 21.8335 22.4488C22.1087 22.4488 22.3485 22.5509 22.5527 22.7552C22.757 22.9595 22.8591 23.1992 22.8591 23.4745C22.8591 23.7497 22.757 23.9894 22.5527 24.1937C22.3485 24.398 22.1087 24.5001 21.8335 24.5001Z" fill="white"/>
</g>
</g>
<defs>
<clipPath id="clip0_428_411">
<rect width="32" height="32" fill="white" transform="translate(0.5 0.5)"/>
</clipPath>
</defs>
</svg>
