<svg width="24" height="24" viewBox="0 0 24 24" fill="none" xmlns="http://www.w3.org/2000/svg">
<path d="M19.952 18.85L14.758 13.6559C15.564 12.614 16 11.34 16 9.99996C16 8.39599 15.374 6.89199 14.242 5.758C13.11 4.624 11.602 4 9.99996 4C8.39799 4 6.89 4.626 5.758 5.758C4.624 6.89 4 8.39599 4 9.99996C4 11.602 4.626 13.11 5.758 14.242C6.89 15.3759 8.39599 16 9.99996 16C11.34 16 12.612 15.564 13.654 14.76L18.848 19.952C18.8632 19.9672 18.8812 19.9793 18.9012 19.9876C18.9211 19.9958 18.9424 20 18.964 20C18.9855 20 19.0069 19.9958 19.0267 19.9876C19.0467 19.9793 19.0647 19.9672 19.08 19.952L19.952 19.0819C19.9672 19.0667 19.9793 19.0486 19.9876 19.0288C19.9958 19.0088 20 18.9875 20 18.966C20 18.9444 19.9958 18.9231 19.9876 18.9032C19.9793 18.8833 19.9672 18.8652 19.952 18.85ZM13.168 13.168C12.32 14.0139 11.196 14.4799 9.99996 14.4799C8.80399 14.4799 7.68 14.0139 6.83199 13.168C5.986 12.32 5.52 11.196 5.52 9.99996C5.52 8.80399 5.986 7.67799 6.83199 6.83199C7.68 5.986 8.80399 5.52 9.99996 5.52C11.196 5.52 12.322 5.984 13.168 6.83199C14.0139 7.68 14.4799 8.80399 14.4799 9.99996C14.4799 11.196 14.0139 12.322 13.168 13.168Z" fill="#606060"/>
</svg>
