<svg width="24" height="24" viewBox="0 0 24 24" fill="none" xmlns="http://www.w3.org/2000/svg">
<path d="M13.8701 3.81836C13.9892 3.81836 14.1052 3.85616 14.2014 3.92632C14.2977 3.99647 14.3691 4.09536 14.4056 4.20873L15.0243 6.13136C15.2842 6.25848 15.5328 6.40136 15.7702 6.56223L17.7457 6.13698C17.8622 6.11212 17.9835 6.12486 18.0923 6.17338C18.2011 6.2219 18.2916 6.3037 18.351 6.40698L19.9102 9.10586C19.9697 9.20908 19.995 9.32855 19.9822 9.44704C19.9695 9.56552 19.9194 9.6769 19.8393 9.76511L18.4837 11.2614C18.5034 11.5483 18.5034 11.8362 18.4837 12.1231L19.8393 13.6216C19.9194 13.7098 19.9695 13.8212 19.9822 13.9397C19.995 14.0582 19.9697 14.1776 19.9102 14.2809L18.351 16.9809C18.2915 17.0839 18.2009 17.1655 18.0921 17.2138C17.9833 17.2621 17.8621 17.2747 17.7457 17.2497L15.7702 16.8245C15.534 16.9842 15.2842 17.1282 15.0255 17.2554L14.4056 19.178C14.3691 19.2914 14.2977 19.3902 14.2014 19.4604C14.1052 19.5306 13.9892 19.5684 13.8701 19.5684H10.7516C10.6325 19.5684 10.5165 19.5306 10.4203 19.4604C10.324 19.3902 10.2525 19.2914 10.2161 19.178L9.59847 17.2565C9.33929 17.1297 9.0893 16.985 8.85034 16.8234L6.87597 17.2497C6.7595 17.2746 6.63813 17.2619 6.52936 17.2133C6.42059 17.1648 6.33003 17.083 6.27072 16.9797L4.71148 14.2809C4.65194 14.1776 4.62672 14.0582 4.63945 13.9397C4.65219 13.8212 4.70223 13.7098 4.78235 13.6216L6.13797 12.1231C6.11834 11.8369 6.11834 11.5498 6.13797 11.2636L4.78235 9.76511C4.70223 9.6769 4.65219 9.56552 4.63945 9.44704C4.62672 9.32855 4.65194 9.20908 4.71148 9.10586L6.27072 6.40586C6.3302 6.30278 6.42083 6.22122 6.52958 6.1729C6.63834 6.12459 6.75962 6.11201 6.87597 6.13698L8.85034 6.56336C9.08884 6.40248 9.33859 6.25736 9.59847 6.13023L10.2172 4.20873C10.2535 4.09572 10.3247 3.9971 10.4205 3.92698C10.5162 3.85686 10.6318 3.81884 10.7505 3.81836H13.869H13.8701ZM13.4583 4.94336H11.1633L10.5243 6.93123L10.0935 7.14161C9.88165 7.24526 9.67717 7.36329 9.48147 7.49486L9.08322 7.76486L7.04022 7.32386L5.89272 9.31286L7.29335 10.8631L7.2596 11.3401C7.24343 11.5753 7.24343 11.8114 7.2596 12.0466L7.29335 12.5236L5.89047 14.0739L7.0391 16.0629L9.08209 15.623L9.48034 15.8919C9.67605 16.0234 9.88052 16.1415 10.0923 16.2451L10.5232 16.4555L11.1633 18.4434H13.4606L14.1018 16.4544L14.5316 16.2451C14.7432 16.1417 14.9473 16.0237 15.1425 15.8919L15.5396 15.623L17.5837 16.0629L18.7312 14.0739L17.3295 12.5236L17.3632 12.0466C17.3794 11.811 17.3794 11.5746 17.3632 11.339L17.3295 10.862L18.7323 9.31286L17.5837 7.32386L15.5396 7.76261L15.1425 7.49486C14.9473 7.36303 14.7432 7.24499 14.5316 7.14161L14.1018 6.93236L13.4595 4.94336H13.4583ZM12.3108 8.31836C13.2059 8.31836 14.0644 8.67394 14.6973 9.30687C15.3303 9.93981 15.6858 10.7983 15.6858 11.6934C15.6858 12.5885 15.3303 13.4469 14.6973 14.0798C14.0644 14.7128 13.2059 15.0684 12.3108 15.0684C11.4157 15.0684 10.5573 14.7128 9.92436 14.0798C9.29142 13.4469 8.93584 12.5885 8.93584 11.6934C8.93584 10.7983 9.29142 9.93981 9.92436 9.30687C10.5573 8.67394 11.4157 8.31836 12.3108 8.31836V8.31836ZM12.3108 9.44336C11.7141 9.44336 11.1418 9.68041 10.7199 10.1024C10.2979 10.5243 10.0608 11.0966 10.0608 11.6934C10.0608 12.2901 10.2979 12.8624 10.7199 13.2843C11.1418 13.7063 11.7141 13.9434 12.3108 13.9434C12.9076 13.9434 13.4799 13.7063 13.9018 13.2843C14.3238 12.8624 14.5608 12.2901 14.5608 11.6934C14.5608 11.0966 14.3238 10.5243 13.9018 10.1024C13.4799 9.68041 12.9076 9.44336 12.3108 9.44336V9.44336Z" fill="#606060"/>
</svg>
