<svg width="25" height="25" viewBox="0 0 25 25" fill="none" xmlns="http://www.w3.org/2000/svg">
<mask id="mask0_20_898" style="mask-type:alpha" maskUnits="userSpaceOnUse" x="0" y="0" width="25" height="25">
<rect x="0.850098" y="0.46582" width="24" height="24" fill="#D9D9D9"/>
</mask>
<g mask="url(#mask0_20_898)">
<path d="M10.4003 15.6158L18.8753 7.14082C19.0753 6.94082 19.3128 6.84082 19.5878 6.84082C19.8628 6.84082 20.1003 6.94082 20.3003 7.14082C20.5003 7.34082 20.6003 7.57832 20.6003 7.85332C20.6003 8.12832 20.5003 8.36582 20.3003 8.56582L11.1003 17.7658C10.9003 17.9658 10.667 18.0658 10.4003 18.0658C10.1336 18.0658 9.9003 17.9658 9.7003 17.7658L5.4003 13.4658C5.2003 13.2658 5.10447 13.0283 5.1128 12.7533C5.12114 12.4783 5.2253 12.2408 5.4253 12.0408C5.6253 11.8408 5.8628 11.7408 6.1378 11.7408C6.4128 11.7408 6.6503 11.8408 6.8503 12.0408L10.4003 15.6158Z" fill="#4CA751"/>
</g>
</svg>
