<svg width="48" height="48" viewBox="0 0 48 48" fill="none" xmlns="http://www.w3.org/2000/svg">
<mask id="mask0_8_627" style="mask-type:alpha" maskUnits="userSpaceOnUse" x="0" y="0" width="48" height="48">
<rect width="48" height="48" fill="#D9D9D9"/>
</mask>
<g mask="url(#mask0_8_627)">
<path d="M22.5 31.5768V14.7768L17.5693 19.7075L15.4616 17.5384L24 9L32.5383 17.5384L30.4307 19.7075L25.4999 14.7768V31.5768H22.5ZM12.6154 38.9999C11.6051 38.9999 10.75 38.6499 10.05 37.9499C9.35 37.2499 9 36.3948 9 35.3845V29.9615H11.9999V35.3845C11.9999 35.5384 12.064 35.6794 12.1922 35.8076C12.3205 35.9359 12.4615 36 12.6154 36H35.3845C35.5384 36 35.6794 35.9359 35.8077 35.8076C35.9359 35.6794 36 35.5384 36 35.3845V29.9615H38.9999V35.3845C38.9999 36.3948 38.6499 37.2499 37.9499 37.9499C37.2499 38.6499 36.3948 38.9999 35.3845 38.9999H12.6154Z" fill="#4CA751"/>
</g>
</svg>
