<svg width="24" height="24" viewBox="0 0 24 24" fill="none" xmlns="http://www.w3.org/2000/svg">
<mask id="mask0_580_352" style="mask-type:alpha" maskUnits="userSpaceOnUse" x="0" y="0" width="24" height="24">
<rect width="24" height="24" fill="#D9D9D9"/>
</mask>
<g mask="url(#mask0_580_352)">
<path d="M10.6154 16.0769H7.07692C5.94897 16.0769 4.9875 15.6796 4.1925 14.8848C3.3975 14.09 3 13.1287 3 12.0011C3 10.8735 3.3975 9.91189 4.1925 9.11637C4.9875 8.32085 5.94897 7.9231 7.07692 7.9231H10.6154V8.9231H7.07692C6.23077 8.9231 5.50642 9.22438 4.90385 9.82695C4.30128 10.4295 4 11.1539 4 12C4 12.8462 4.30128 13.5705 4.90385 14.1731C5.50642 14.7757 6.23077 15.0769 7.07692 15.0769H10.6154V16.0769ZM8.5 12.5V11.5H15.5V12.5H8.5ZM13.3846 16.0769V15.0769H16.9231C17.7692 15.0769 18.4936 14.7757 19.0962 14.1731C19.6987 13.5705 20 12.8462 20 12C20 11.1539 19.6987 10.4295 19.0962 9.82695C18.4936 9.22438 17.7692 8.9231 16.9231 8.9231H13.3846V7.9231H16.9231C18.051 7.9231 19.0125 8.32049 19.8075 9.11527C20.6025 9.91007 21 10.8713 21 11.9989C21 13.1266 20.6025 14.0882 19.8075 14.8837C19.0125 15.6792 18.051 16.0769 16.9231 16.0769H13.3846Z" fill="#989898"/>
</g>
</svg>
