<svg width="34" height="34" viewBox="0 0 34 34" fill="none" xmlns="http://www.w3.org/2000/svg">
<g clip-path="url(#clip0_413_411)">
<path d="M33.2491 8.74333C33.0541 8.01981 32.6737 7.36019 32.1457 6.83017C31.6178 6.30015 30.9608 5.91822 30.2401 5.7224C27.6017 5 16.9828 5 16.9828 5C16.9828 5 6.36334 5.02187 3.72488 5.74427C3.00418 5.94009 2.34715 6.32205 1.81922 6.85209C1.29129 7.38214 0.910883 8.04178 0.715885 8.76533C-0.0821854 13.4717 -0.391771 20.6432 0.737799 25.1613C0.932817 25.8849 1.31323 26.5445 1.84116 27.0745C2.36909 27.6045 3.02611 27.9865 3.7468 28.1823C6.38525 28.9047 17.0044 28.9047 17.0044 28.9047C17.0044 28.9047 27.6234 28.9047 30.2618 28.1823C30.9825 27.9865 31.6395 27.6045 32.1675 27.0745C32.6954 26.5445 33.0759 25.8849 33.2709 25.1613C34.1127 20.4483 34.372 13.2812 33.2491 8.74333Z" fill="#FF0000"/>
<path d="M13.603 22.0749L22.4122 16.9525L13.603 11.8301V22.0749Z" fill="white"/>
</g>
<defs>
<clipPath id="clip0_413_411">
<rect width="34" height="24" fill="white" transform="translate(0 5)"/>
</clipPath>
</defs>
</svg>
