<svg width="24" height="24" viewBox="0 0 24 24" fill="none" xmlns="http://www.w3.org/2000/svg">
<g clip-path="url(#clip0_408_704)">
<path d="M21.5583 7.19336C21.4436 6.76942 21.2198 6.38293 20.9093 6.07237C20.5987 5.76181 20.2122 5.53802 19.7883 5.42328C18.2363 5 11.9899 5 11.9899 5C11.9899 5 5.74314 5.01281 4.19111 5.43609C3.76716 5.55084 3.38067 5.77464 3.07013 6.08521C2.75958 6.39579 2.53581 6.78229 2.42111 7.20625C1.95166 9.96391 1.76955 14.1659 2.434 16.8133C2.54872 17.2372 2.77249 17.6237 3.08303 17.9343C3.39358 18.2448 3.78006 18.4686 4.204 18.5834C5.75603 19.0066 12.0026 19.0066 12.0026 19.0066C12.0026 19.0066 18.2491 19.0066 19.801 18.5834C20.225 18.4686 20.6115 18.2449 20.922 17.9343C21.2326 17.6237 21.4564 17.2372 21.5711 16.8133C22.0663 14.0517 22.2188 9.85227 21.5583 7.19336Z" fill="#FF0000"/>
<path d="M10.002 15.0048L15.1838 12.0034L10.002 9.00195V15.0048Z" fill="white"/>
</g>
<defs>
<clipPath id="clip0_408_704">
<rect width="20" height="14.0625" fill="white" transform="translate(2 5)"/>
</clipPath>
</defs>
</svg>
